<?xml version="1.0" encoding="UTF-8" standalone="no"?>
<!-- Created with Inkscape (http://www.inkscape.org/) -->

<svg
   xmlns:dc="http://purl.org/dc/elements/1.1/"
   xmlns:cc="http://creativecommons.org/ns#"
   xmlns:rdf="http://www.w3.org/1999/02/22-rdf-syntax-ns#"
   xmlns:svg="http://www.w3.org/2000/svg"
   xmlns="http://www.w3.org/2000/svg"
   xmlns:sodipodi="http://sodipodi.sourceforge.net/DTD/sodipodi-0.dtd"
   xmlns:inkscape="http://www.inkscape.org/namespaces/inkscape"
   width="174.56107mm"
   height="137.64874mm"
   viewBox="0 0 618.52346 487.73176"
   id="svg3434"
   version="1.1"
   inkscape:version="0.91 r13725"
   sodipodi:docname="ExplainedAway.svg">
  <defs
     id="defs3436">
    <marker
       inkscape:isstock="true"
       style="overflow:visible"
       id="marker5798"
       refX="0"
       refY="0"
       orient="auto"
       inkscape:stockid="Arrow2Lend">
      <path
         transform="matrix(-1.1,0,0,-1.1,-1.1,0)"
         d="M 8.7185878,4.0337352 -2.2072895,0.01601326 8.7185884,-4.0017078 c -1.7454984,2.3720609 -1.7354408,5.6174519 -6e-7,8.035443 z"
         style="fill:#000000;fill-opacity:1;fill-rule:evenodd;stroke:#000000;stroke-width:0.625;stroke-linejoin:round;stroke-opacity:1"
         id="path5800"
         inkscape:connector-curvature="0" />
    </marker>
    <marker
       inkscape:stockid="Arrow2Lend"
       orient="auto"
       refY="0"
       refX="0"
       id="marker5689"
       style="overflow:visible"
       inkscape:isstock="true"
       inkscape:collect="always">
      <path
         id="path5691"
         style="fill:#000000;fill-opacity:1;fill-rule:evenodd;stroke:#000000;stroke-width:0.625;stroke-linejoin:round;stroke-opacity:1"
         d="M 8.7185878,4.0337352 -2.2072895,0.01601326 8.7185884,-4.0017078 c -1.7454984,2.3720609 -1.7354408,5.6174519 -6e-7,8.035443 z"
         transform="matrix(-1.1,0,0,-1.1,-1.1,0)"
         inkscape:connector-curvature="0" />
    </marker>
    <marker
       inkscape:isstock="true"
       style="overflow:visible"
       id="marker5586"
       refX="0"
       refY="0"
       orient="auto"
       inkscape:stockid="Arrow2Lend"
       inkscape:collect="always">
      <path
         transform="matrix(-1.1,0,0,-1.1,-1.1,0)"
         d="M 8.7185878,4.0337352 -2.2072895,0.01601326 8.7185884,-4.0017078 c -1.7454984,2.3720609 -1.7354408,5.6174519 -6e-7,8.035443 z"
         style="fill:#000000;fill-opacity:1;fill-rule:evenodd;stroke:#000000;stroke-width:0.625;stroke-linejoin:round;stroke-opacity:1"
         id="path5588"
         inkscape:connector-curvature="0" />
    </marker>
    <marker
       inkscape:stockid="Arrow2Lstart"
       orient="auto"
       refY="0"
       refX="0"
       id="Arrow2Lstart"
       style="overflow:visible"
       inkscape:isstock="true">
      <path
         id="path4342"
         style="fill:#000000;fill-opacity:1;fill-rule:evenodd;stroke:#000000;stroke-width:0.625;stroke-linejoin:round;stroke-opacity:1"
         d="M 8.7185878,4.0337352 -2.2072895,0.01601326 8.7185884,-4.0017078 c -1.7454984,2.3720609 -1.7354408,5.6174519 -6e-7,8.035443 z"
         transform="matrix(1.1,0,0,1.1,1.1,0)"
         inkscape:connector-curvature="0" />
    </marker>
    <marker
       inkscape:stockid="Arrow1Lstart"
       orient="auto"
       refY="0"
       refX="0"
       id="Arrow1Lstart"
       style="overflow:visible"
       inkscape:isstock="true">
      <path
         id="path4324"
         d="M 0,0 5,-5 -12.5,0 5,5 0,0 Z"
         style="fill:#000000;fill-opacity:1;fill-rule:evenodd;stroke:#000000;stroke-width:1pt;stroke-opacity:1"
         transform="matrix(0.8,0,0,0.8,10,0)"
         inkscape:connector-curvature="0" />
    </marker>
    <marker
       inkscape:stockid="Arrow2Lend"
       orient="auto"
       refY="0"
       refX="0"
       id="marker5251"
       style="overflow:visible"
       inkscape:isstock="true"
       inkscape:collect="always">
      <path
         id="path5253"
         style="fill:#000000;fill-opacity:1;fill-rule:evenodd;stroke:#000000;stroke-width:0.625;stroke-linejoin:round;stroke-opacity:1"
         d="M 8.7185878,4.0337352 -2.2072895,0.01601326 8.7185884,-4.0017078 c -1.7454984,2.3720609 -1.7354408,5.6174519 -6e-7,8.035443 z"
         transform="matrix(-1.1,0,0,-1.1,-1.1,0)"
         inkscape:connector-curvature="0" />
    </marker>
    <marker
       inkscape:stockid="Arrow1Lend"
       orient="auto"
       refY="0"
       refX="0"
       id="marker5178"
       style="overflow:visible"
       inkscape:isstock="true">
      <path
         id="path5180"
         d="M 0,0 5,-5 -12.5,0 5,5 0,0 Z"
         style="fill:#000000;fill-opacity:1;fill-rule:evenodd;stroke:#000000;stroke-width:1pt;stroke-opacity:1"
         transform="matrix(-0.8,0,0,-0.8,-10,0)"
         inkscape:connector-curvature="0" />
    </marker>
    <marker
       inkscape:stockid="Torso"
       orient="auto"
       refY="0"
       refX="0"
       id="Torso"
       style="overflow:visible"
       inkscape:isstock="true">
      <g
         id="g4536"
         transform="scale(0.7,0.7)"
         style="fill:#000000;fill-opacity:1;stroke:#000000;stroke-opacity:1">
        <path
           id="path4538"
           d="m -4.7792281,-3.239542 c 2.350374,0.3659393 5.30026732,1.9375477 5.03715532,3.62748546 C -0.00518779,2.0778819 -2.2126741,2.6176539 -4.5630471,2.2517169 -6.9134221,1.8857769 -8.521035,0.75201414 -8.257922,-0.93792336 -7.994809,-2.6278615 -7.1296041,-3.6054813 -4.7792281,-3.239542 Z"
           style="fill:#000000;fill-opacity:1;fill-rule:evenodd;stroke:#000000;stroke-width:1.25;stroke-opacity:1"
           inkscape:connector-curvature="0" />
        <path
           id="path4540"
           d="M 4.4598789,0.08866574 C -2.5564571,-4.378332 5.2248769,-3.9061806 -0.84829578,-8.7197331"
           style="fill:#000000;fill-opacity:1;fill-rule:evenodd;stroke:#000000;stroke-width:1pt;stroke-opacity:1"
           inkscape:connector-curvature="0" />
        <path
           id="path4542"
           d="M 4.9298719,0.05752074 C -1.3872731,1.7494689 1.8027579,5.4782079 -4.9448731,7.5462725"
           style="fill:#000000;fill-opacity:1;fill-rule:evenodd;stroke:#000000;stroke-width:1pt;stroke-opacity:1"
           inkscape:connector-curvature="0" />
        <rect
           id="rect4544"
           transform="matrix(0.527536,-0.849533,0.887668,0.460484,0,0)"
           y="-1.7408575"
           x="-10.391706"
           height="2.7608147"
           width="2.6366582"
           style="fill:#000000;fill-opacity:1;fill-rule:evenodd;stroke:#000000;stroke-width:1pt;stroke-opacity:1" />
        <rect
           id="rect4546"
           transform="matrix(0.671205,-0.741272,0.790802,0.612072,0,0)"
           y="-7.9629307"
           x="4.9587269"
           height="2.8614161"
           width="2.7327356"
           style="fill:#000000;fill-opacity:1;fill-rule:evenodd;stroke:#000000;stroke-width:1pt;stroke-opacity:1" />
        <path
           id="path4548"
           transform="matrix(0,-1.109517,1.109517,0,25.96648,19.71619)"
           d="m 16.779951,-28.685045 a 0.60731727,0.60731727 0 1 0 -1.214634,0 0.60731727,0.60731727 0 1 0 1.214634,0 z"
           style="fill:#000000;fill-opacity:1;fill-rule:evenodd;stroke:#000000;stroke-width:1pt;stroke-opacity:1"
           inkscape:connector-curvature="0" />
        <path
           id="path4550"
           transform="matrix(0,-1.109517,1.109517,0,26.8245,16.99126)"
           d="m 16.779951,-28.685045 a 0.60731727,0.60731727 0 1 0 -1.214634,0 0.60731727,0.60731727 0 1 0 1.214634,0 z"
           style="fill:#000000;fill-opacity:1;fill-rule:evenodd;stroke:#000000;stroke-width:1pt;stroke-opacity:1"
           inkscape:connector-curvature="0" />
      </g>
    </marker>
    <marker
       inkscape:stockid="TriangleOutL"
       orient="auto"
       refY="0"
       refX="0"
       id="TriangleOutL"
       style="overflow:visible"
       inkscape:isstock="true">
      <path
         id="path4466"
         d="m 5.77,0 -8.65,5 0,-10 8.65,5 z"
         style="fill:#000000;fill-opacity:1;fill-rule:evenodd;stroke:#000000;stroke-width:1pt;stroke-opacity:1"
         transform="scale(0.8,0.8)"
         inkscape:connector-curvature="0" />
    </marker>
    <marker
       inkscape:stockid="Arrow2Lend"
       orient="auto"
       refY="0"
       refX="0"
       id="marker4980"
       style="overflow:visible"
       inkscape:isstock="true">
      <path
         id="path4982"
         style="fill:#000000;fill-opacity:1;fill-rule:evenodd;stroke:#000000;stroke-width:0.625;stroke-linejoin:round;stroke-opacity:1"
         d="M 8.7185878,4.0337352 -2.2072895,0.01601326 8.7185884,-4.0017078 c -1.7454984,2.3720609 -1.7354408,5.6174519 -6e-7,8.035443 z"
         transform="matrix(-1.1,0,0,-1.1,-1.1,0)"
         inkscape:connector-curvature="0" />
    </marker>
    <marker
       inkscape:stockid="Arrow2Lend"
       orient="auto"
       refY="0"
       refX="0"
       id="Arrow2Lend"
       style="overflow:visible"
       inkscape:isstock="true">
      <path
         id="path4345"
         style="fill:#000000;fill-opacity:1;fill-rule:evenodd;stroke:#000000;stroke-width:0.625;stroke-linejoin:round;stroke-opacity:1"
         d="M 8.7185878,4.0337352 -2.2072895,0.01601326 8.7185884,-4.0017078 c -1.7454984,2.3720609 -1.7354408,5.6174519 -6e-7,8.035443 z"
         transform="matrix(-1.1,0,0,-1.1,-1.1,0)"
         inkscape:connector-curvature="0" />
    </marker>
    <marker
       inkscape:stockid="Arrow1Lend"
       orient="auto"
       refY="0"
       refX="0"
       id="Arrow1Lend"
       style="overflow:visible"
       inkscape:isstock="true">
      <path
         id="path4327"
         d="M 0,0 5,-5 -12.5,0 5,5 0,0 Z"
         style="fill:#000000;fill-opacity:1;fill-rule:evenodd;stroke:#000000;stroke-width:1pt;stroke-opacity:1"
         transform="matrix(-0.8,0,0,-0.8,-10,0)"
         inkscape:connector-curvature="0" />
    </marker>
  </defs>
  <sodipodi:namedview
     id="base"
     pagecolor="#ffffff"
     bordercolor="#666666"
     borderopacity="1.0"
     inkscape:pageopacity="0.0"
     inkscape:pageshadow="2"
     inkscape:zoom="2"
     inkscape:cx="295.07631"
     inkscape:cy="163.9602"
     inkscape:document-units="px"
     inkscape:current-layer="layer1"
     showgrid="true"
     showguides="true"
     fit-margin-top="0"
     fit-margin-left="0"
     fit-margin-right="0"
     fit-margin-bottom="0"
     inkscape:window-width="1855"
     inkscape:window-height="1056"
     inkscape:window-x="65"
     inkscape:window-y="24"
     inkscape:window-maximized="1">
    <inkscape:grid
       type="xygrid"
       id="grid3442"
       originx="-35.112657"
       originy="-552.28275" />
  </sodipodi:namedview>
  <metadata
     id="metadata3439">
    <rdf:RDF>
      <cc:Work
         rdf:about="">
        <dc:format>image/svg+xml</dc:format>
        <dc:type
           rdf:resource="http://purl.org/dc/dcmitype/StillImage" />
        <dc:title></dc:title>
      </cc:Work>
    </rdf:RDF>
  </metadata>
  <g
     inkscape:label="Layer 1"
     inkscape:groupmode="layer"
     id="layer1"
     transform="translate(-35.112655,-12.347699)">
    <path
       style="opacity:1;fill:#ffffff;stroke:#000000;stroke-width:6.2384038;stroke-miterlimit:4;stroke-dasharray:none"
       d="M 194.19196,167.76958 A 77.980049,77.980049 0 0 1 116.21191,245.74963 77.980049,77.980049 0 0 1 38.231857,167.76958 77.980049,77.980049 0 0 1 116.21191,89.789528 77.980049,77.980049 0 0 1 194.19196,167.76958 Z"
       id="path3444"
       inkscape:connector-curvature="0" />
    <g
       style="font-style:normal;font-weight:normal;font-size:30px;line-height:125%;font-family:Sans;letter-spacing:0px;word-spacing:0px;fill:#000000;fill-opacity:1;stroke:none;stroke-width:1px;stroke-linecap:butt;stroke-linejoin:miter;stroke-opacity:1"
       id="text3467">
      <path
         d="m 49.253963,154.78906 13.828125,0 0,2.49024 -10.86914,0 0,6.47461 10.415039,0 0,2.49023 -10.415039,0 0,7.92481 11.132812,0 0,2.49023 -14.091797,0 0,-21.87012 z"
         id="path6112"
         inkscape:connector-curvature="0" />
      <path
         d="m 77.627987,162.77246 q -0.454102,-0.26367 -0.996094,-0.38086 -0.527344,-0.13183 -1.171875,-0.13183 -2.285156,0 -3.515625,1.49414 -1.21582,1.47949 -1.21582,4.26269 l 0,8.64258 -2.709961,0 0,-16.40625 2.709961,0 0,2.54883 q 0.849609,-1.49414 2.211914,-2.21192 1.362305,-0.73242 3.310547,-0.73242 0.27832,0 0.615234,0.0439 0.336914,0.0293 0.74707,0.10254 l 0.01465,2.76855 z"
         id="path6114"
         inkscape:connector-curvature="0" />
      <path
         d="m 90.752987,162.74316 0,-8.87695 2.695312,0 0,22.79297 -2.695312,0 0,-2.46094 q -0.849609,1.46485 -2.15332,2.18262 -1.289063,0.70312 -3.105469,0.70312 -2.973633,0 -4.848633,-2.37304 -1.860352,-2.37305 -1.860352,-6.24024 0,-3.86718 1.860352,-6.24023 1.875,-2.37305 4.848633,-2.37305 1.816406,0 3.105469,0.71778 1.303711,0.70312 2.15332,2.16796 z m -9.18457,5.72754 q 0,2.97364 1.21582,4.67285 1.230469,1.68457 3.369141,1.68457 2.138671,0 3.36914,-1.68457 1.230469,-1.69921 1.230469,-4.67285 0,-2.97363 -1.230469,-4.6582 -1.230469,-1.69922 -3.36914,-1.69922 -2.138672,0 -3.369141,1.69922 -1.21582,1.68457 -1.21582,4.6582 z"
         id="path6116"
         inkscape:connector-curvature="0" />
      <path
         d="m 110.7774,168.4707 q 0,-2.97363 -1.23047,-4.6582 -1.21582,-1.69922 -3.35449,-1.69922 -2.13867,0 -3.36914,1.69922 -1.21582,1.68457 -1.21582,4.6582 0,2.97364 1.21582,4.67285 1.23047,1.68457 3.36914,1.68457 2.13867,0 3.35449,-1.68457 1.23047,-1.69921 1.23047,-4.67285 z m -9.16992,-5.72754 q 0.84961,-1.46484 2.13867,-2.16796 1.30371,-0.71778 3.10547,-0.71778 2.98828,0 4.84863,2.37305 1.875,2.37305 1.875,6.24023 0,3.86719 -1.875,6.24024 -1.86035,2.37304 -4.84863,2.37304 -1.80176,0 -3.10547,-0.70312 -1.28906,-0.71777 -2.13867,-2.18262 l 0,2.46094 -2.709962,0 0,-22.79297 2.709962,0 0,8.87695 z"
         id="path6118"
         inkscape:connector-curvature="0" />
      <path
         d="m 132.07623,167.78223 0,1.31836 -12.39258,0 q 0.17578,2.7832 1.66992,4.24804 1.50879,1.4502 4.18946,1.4502 1.55273,0 3.00293,-0.38086 1.46484,-0.38086 2.90039,-1.14258 l 0,2.54883 q -1.4502,0.61523 -2.97364,0.9375 -1.52343,0.32226 -3.09082,0.32226 -3.92578,0 -6.22558,-2.28515 -2.28516,-2.28516 -2.28516,-6.18164 0,-4.02832 2.16797,-6.38672 2.18262,-2.37305 5.87402,-2.37305 3.31055,0 5.2295,2.13867 1.93359,2.12403 1.93359,5.78614 z m -2.69531,-0.79102 q -0.0293,-2.21191 -1.24512,-3.53027 -1.20117,-1.31836 -3.19336,-1.31836 -2.25586,0 -3.61816,1.27441 -1.34766,1.27442 -1.55274,3.58887 l 9.60938,-0.0147 z"
         id="path6120"
         inkscape:connector-curvature="0" />
      <path
         d="m 148.2774,168.4707 q 0,-2.97363 -1.23047,-4.6582 -1.21582,-1.69922 -3.35449,-1.69922 -2.13867,0 -3.36914,1.69922 -1.21582,1.68457 -1.21582,4.6582 0,2.97364 1.21582,4.67285 1.23047,1.68457 3.36914,1.68457 2.13867,0 3.35449,-1.68457 1.23047,-1.69921 1.23047,-4.67285 z m -9.16992,-5.72754 q 0.84961,-1.46484 2.13867,-2.16796 1.30371,-0.71778 3.10547,-0.71778 2.98828,0 4.84863,2.37305 1.875,2.37305 1.875,6.24023 0,3.86719 -1.875,6.24024 -1.86035,2.37304 -4.84863,2.37304 -1.80176,0 -3.10547,-0.70312 -1.28906,-0.71777 -2.13867,-2.18262 l 0,2.46094 -2.70996,0 0,-22.79297 2.70996,0 0,8.87695 z"
         id="path6122"
         inkscape:connector-curvature="0" />
      <path
         d="m 169.57623,167.78223 0,1.31836 -12.39258,0 q 0.17578,2.7832 1.66992,4.24804 1.50879,1.4502 4.18946,1.4502 1.55273,0 3.00293,-0.38086 1.46484,-0.38086 2.90039,-1.14258 l 0,2.54883 q -1.4502,0.61523 -2.97364,0.9375 -1.52343,0.32226 -3.09082,0.32226 -3.92578,0 -6.22558,-2.28515 -2.28516,-2.28516 -2.28516,-6.18164 0,-4.02832 2.16797,-6.38672 2.18262,-2.37305 5.87402,-2.37305 3.31055,0 5.2295,2.13867 1.93359,2.12403 1.93359,5.78614 z m -2.69531,-0.79102 q -0.0293,-2.21191 -1.24512,-3.53027 -1.20117,-1.31836 -3.19336,-1.31836 -2.25586,0 -3.61816,1.27441 -1.34766,1.27442 -1.55274,3.58887 l 9.60938,-0.0147 z"
         id="path6124"
         inkscape:connector-curvature="0" />
      <path
         d="m 187.63775,166.75684 0,9.90234 -2.69531,0 0,-9.81445 q 0,-2.32911 -0.9082,-3.48633 -0.90821,-1.15723 -2.72461,-1.15723 -2.18262,0 -3.44239,1.3916 -1.25976,1.3916 -1.25976,3.79395 l 0,9.27246 -2.70996,0 0,-16.40625 2.70996,0 0,2.54883 q 0.9668,-1.47949 2.27051,-2.21192 1.31836,-0.73242 3.03222,-0.73242 2.82715,0 4.27735,1.75781 1.45019,1.74317 1.45019,5.14161 z"
         id="path6126"
         inkscape:connector-curvature="0" />
    </g>
    <path
       style="opacity:1;fill:#ffffff;stroke:#000000;stroke-width:6.2384038;stroke-miterlimit:4;stroke-dasharray:none"
       d="m 650.51691,169.73912 a 77.980049,77.980049 0 0 1 -77.98004,77.98005 77.980049,77.980049 0 0 1 -77.98005,-77.98005 77.980049,77.980049 0 0 1 77.98005,-77.980049 77.980049,77.980049 0 0 1 77.98004,77.980049 z"
       id="path3444-1"
       inkscape:connector-curvature="0" />
    <path
       style="opacity:1;fill:#ffffff;stroke:#000000;stroke-width:6.2384038;stroke-miterlimit:4;stroke-dasharray:none"
       d="m 424.90519,418.98022 a 77.980049,77.980049 0 0 1 -77.98005,77.98005 77.980049,77.980049 0 0 1 -77.98005,-77.98005 77.980049,77.980049 0 0 1 77.98005,-77.98004 77.980049,77.980049 0 0 1 77.98005,77.98004 z"
       id="path3444-4"
       inkscape:connector-curvature="0" />
    <g
       transform="scale(0.97225713,1.0285345)"
       style="font-style:normal;font-weight:normal;font-size:36.46764374px;line-height:125%;font-family:Sans;letter-spacing:0px;word-spacing:0px;fill:#000000;fill-opacity:1;stroke:none;stroke-width:1px;stroke-linecap:butt;stroke-linejoin:miter;stroke-opacity:1"
       id="text3492">
      <path
         d="m 547.63232,104.11938 3.59691,0 0,23.55796 12.9453,0 0,3.0271 -16.54221,0 0,-26.58506 z"
         id="path6048"
         inkscape:connector-curvature="0" />
      <path
         d="m 567.93169,104.11938 3.59691,0 0,11.23588 11.93033,-11.23588 4.62968,0 -13.19459,12.3933 14.13834,14.19176 -4.73652,0 -12.76724,-12.80285 0,12.80285 -3.59691,0 0,-26.58506 z"
         id="path6050"
         inkscape:connector-curvature="0" />
      <path
         d="m 588.21326,104.11938 3.63252,0 5.59123,22.47176 5.57342,-22.47176 4.04207,0 5.59123,22.47176 5.57342,-22.47176 3.65033,0 -6.67742,26.58506 -4.52285,0 -5.60903,-23.07718 -5.66246,23.07718 -4.52284,0 -6.65962,-26.58506 z"
         id="path6052"
         inkscape:connector-curvature="0" />
      <path
         d="m 550.73065,150.68329 0,5.66246 6.74865,0 0,2.54632 -6.74865,0 0,10.82634 q 0,2.43948 0.65884,3.13393 0.67664,0.69446 2.72439,0.69446 l 3.36542,0 0,2.74219 -3.36542,0 q -3.79278,0 -5.2351,-1.40671 -1.44233,-1.42452 -1.44233,-5.16387 l 0,-10.82634 -2.40387,0 0,-2.54632 2.40387,0 0,-5.66246 3.2942,0 z"
         id="path6054"
         inkscape:connector-curvature="0" />
      <path
         d="m 573.36267,159.40846 q -0.552,-0.32051 -1.21084,-0.46297 -0.64104,-0.16025 -1.42452,-0.16025 -2.77781,0 -4.27355,1.81625 -1.47794,1.79846 -1.47794,5.18169 l 0,10.50581 -3.29419,0 0,-19.94324 3.29419,0 0,3.09832 q 1.03278,-1.81626 2.68878,-2.68877 1.656,-0.89033 4.02426,-0.89033 0.33832,0 0.74787,0.0534 0.40955,0.0356 0.90813,0.12465 l 0.0178,3.36542 z"
         id="path6056"
         inkscape:connector-curvature="0" />
      <path
         d="m 576.83493,156.34575 3.27639,0 0,19.94324 -3.27639,0 0,-19.94324 z m 0,-7.76362 3.27639,0 0,4.14891 -3.27639,0 0,-4.14891 z"
         id="path6058"
         inkscape:connector-curvature="0" />
      <path
         d="m 609.33173,148.58213 0,2.72439 -3.13394,0 q -1.76284,0 -2.45729,0.71226 -0.67665,0.71226 -0.67665,2.56413 l 0,1.76284 5.39536,0 0,2.54632 -5.39536,0 0,17.39692 -3.29419,0 0,-17.39692 -8.99227,0 0,17.39692 -3.2942,0 0,-17.39692 -3.13393,0 0,-2.54632 3.13393,0 0,-1.38891 q 0,-3.3298 1.54917,-4.84335 1.54916,-1.53136 4.91458,-1.53136 l 3.09833,0 0,2.72439 -3.13394,0 q -1.76284,0 -2.45729,0.71226 -0.67665,0.71226 -0.67665,2.56413 l 0,1.76284 8.99227,0 0,-1.38891 q 0,-3.3298 1.54916,-4.84335 1.54916,-1.53136 4.91458,-1.53136 l 3.09833,0 z"
         id="path6060"
         inkscape:connector-curvature="0" />
      <path
         d="m 615.33251,150.68329 0,5.66246 6.74865,0 0,2.54632 -6.74865,0 0,10.82634 q 0,2.43948 0.65884,3.13393 0.67664,0.69446 2.72439,0.69446 l 3.36542,0 0,2.74219 -3.36542,0 q -3.79278,0 -5.2351,-1.40671 -1.44233,-1.42452 -1.44233,-5.16387 l 0,-10.82634 -2.40387,0 0,-2.54632 2.40387,0 0,-5.66246 3.2942,0 z"
         id="path6062"
         inkscape:connector-curvature="0" />
      <path
         d="m 547.63232,195.28849 3.59691,0 0,10.89756 13.06995,0 0,-10.89756 3.5969,0 0,26.58506 -3.5969,0 0,-12.6604 -13.06995,0 0,12.6604 -3.59691,0 0,-26.58506 z"
         id="path6064"
         inkscape:connector-curvature="0" />
      <path
         d="m 583.97532,211.84851 q -3.97084,0 -5.5022,0.90813 -1.53135,0.90813 -1.53135,3.09832 0,1.74503 1.13961,2.77781 1.15742,1.01497 3.13394,1.01497 2.72439,0 4.36258,-1.9231 1.656,-1.94091 1.656,-5.14607 l 0,-0.73006 -3.25858,0 z m 6.53497,-1.3533 0,11.37834 -3.27639,0 0,-3.0271 q -1.1218,1.81626 -2.79561,2.68877 -1.67381,0.85471 -4.09549,0.85471 -3.06271,0 -4.87897,-1.70942 -1.79845,-1.72722 -1.79845,-4.61187 0,-3.36542 2.24361,-5.07484 2.26142,-1.70943 6.73085,-1.70943 l 4.59406,0 0,-0.32051 q 0,-2.26142 -1.49574,-3.49007 -1.47794,-1.24645 -4.16671,-1.24645 -1.70942,0 -3.32981,0.40955 -1.62039,0.40955 -3.11613,1.22864 l 0,-3.0271 q 1.79845,-0.69445 3.49006,-1.03277 1.69162,-0.35613 3.2942,-0.35613 4.32697,0 6.46375,2.24361 2.13677,2.24362 2.13677,6.80207 z"
         id="path6066"
         inkscape:connector-curvature="0" />
      <path
         d="m 596.93843,214.00309 0,-12.07279 3.27639,0 0,11.94814 q 0,2.83123 1.104,4.25575 1.104,1.40671 3.312,1.40671 2.65317,0 4.18452,-1.69161 1.54916,-1.69162 1.54916,-4.61188 l 0,-11.30711 3.27639,0 0,19.94325 -3.27639,0 0,-3.06272 q -1.19303,1.81626 -2.7778,2.70659 -1.56697,0.87251 -3.65033,0.87251 -3.43665,0 -5.21729,-2.13677 -1.78065,-2.13678 -1.78065,-6.25007 z m 8.24439,-12.55356 0,0 z"
         id="path6068"
         inkscape:connector-curvature="0" />
      <path
         d="m 633.13898,202.51792 0,3.09832 q -1.38891,-0.71226 -2.88465,-1.06839 -1.49575,-0.35612 -3.09833,-0.35612 -2.43948,0 -3.66813,0.74787 -1.21084,0.74787 -1.21084,2.24361 0,1.13962 0.87252,1.79845 0.87251,0.64104 3.50787,1.22865 l 1.12181,0.24929 q 3.49007,0.74787 4.9502,2.11897 1.47793,1.35329 1.47793,3.79278 0,2.77781 -2.208,4.3982 -2.19019,1.62038 -6.03639,1.62038 -1.60258,0 -3.34762,-0.32051 -1.72722,-0.30271 -3.65032,-0.92594 l 0,-3.38323 q 1.81626,0.94375 3.5791,1.42452 1.76284,0.46297 3.49007,0.46297 2.31484,0 3.56129,-0.78349 1.24645,-0.80129 1.24645,-2.24361 0,-1.33549 -0.90813,-2.04774 -0.89032,-0.71226 -3.93523,-1.3711 l -1.13961,-0.2671 q -3.04491,-0.64103 -4.3982,-1.95871 -1.35329,-1.33549 -1.35329,-3.65033 0,-2.81342 1.99432,-4.34477 1.99433,-1.53136 5.66246,-1.53136 1.81626,0 3.41884,0.2671 1.60258,0.26709 2.95588,0.80129 z"
         id="path6070"
         inkscape:connector-curvature="0" />
    </g>
    <g
       transform="scale(0.98854711,1.0115856)"
       style="font-style:normal;font-weight:normal;font-size:33.78033829px;line-height:125%;font-family:Sans;letter-spacing:0px;word-spacing:0px;fill:#000000;fill-opacity:1;stroke:none;stroke-width:1px;stroke-linecap:butt;stroke-linejoin:miter;stroke-opacity:1"
       id="text3500">
      <path
         d="m 291.6899,372.97233 3.33185,0 0,10.09451 12.10682,0 0,-10.09451 3.33185,0 0,24.626 -3.33185,0 0,-11.72745 -12.10682,0 0,11.72745 -3.33185,0 0,-24.626 z"
         id="path6025"
         inkscape:connector-curvature="0" />
      <path
         d="m 325.35478,388.31203 q -3.67823,0 -5.09674,0.84121 -1.41851,0.84121 -1.41851,2.87001 0,1.61644 1.05563,2.57311 1.07213,0.94018 2.903,0.94018 2.52363,0 4.0411,-1.78139 1.53397,-1.79787 1.53397,-4.76685 l 0,-0.67627 -3.01845,0 z m 6.05341,-1.25356 0,10.53986 -3.03496,0 0,-2.80403 q -1.03914,1.68241 -2.5896,2.49064 -1.55047,0.79172 -3.79369,0.79172 -2.83702,0 -4.51944,-1.58345 -1.66593,-1.59995 -1.66593,-4.27203 0,-3.11742 2.07829,-4.70087 2.09477,-1.58346 6.23484,-1.58346 l 4.25553,0 0,-0.29689 q 0,-2.09478 -1.38552,-3.23289 -1.36902,-1.1546 -3.85966,-1.1546 -1.58346,0 -3.08444,0.37937 -1.50098,0.37937 -2.8865,1.13811 l 0,-2.80404 q 1.66592,-0.64327 3.23288,-0.95667 1.56696,-0.32988 3.05145,-0.32988 4.00811,0 5.98743,2.07828 1.97932,2.07828 1.97932,6.30083 z"
         id="path6027"
         inkscape:connector-curvature="0" />
      <path
         d="m 337.36263,390.30784 0,-11.18313 3.03495,0 0,11.06767 q 0,2.6226 1.02265,3.94214 1.02265,1.30305 3.06794,1.30305 2.45765,0 3.87616,-1.56696 1.43501,-1.56695 1.43501,-4.27202 l 0,-10.47388 3.03495,0 0,18.47362 -3.03495,0 0,-2.83702 q -1.10512,1.68242 -2.57311,2.50713 -1.4515,0.80822 -3.38134,0.80822 -3.1834,0 -4.83283,-1.97931 -1.64943,-1.97932 -1.64943,-5.78951 z m 7.63687,-11.62848 0,0 z"
         id="path6029"
         inkscape:connector-curvature="0" />
      <path
         d="m 370.89555,379.66902 0,2.87001 q -1.28655,-0.65978 -2.67207,-0.98966 -1.38553,-0.32989 -2.87001,-0.32989 -2.25972,0 -3.39783,0.69276 -1.12161,0.69276 -1.12161,2.07829 0,1.05563 0.80822,1.66592 0.80822,0.5938 3.24938,1.13811 l 1.03914,0.23092 q 3.23288,0.69276 4.58542,1.96282 1.36902,1.25357 1.36902,3.51329 0,2.57311 -2.04529,4.07409 -2.0288,1.50098 -5.59157,1.50098 -1.48449,0 -3.10093,-0.29689 -1.59995,-0.28041 -3.38133,-0.85771 l 0,-3.13392 q 1.68242,0.8742 3.31535,1.31955 1.63294,0.42885 3.23289,0.42885 2.14426,0 3.29886,-0.72575 1.1546,-0.74224 1.1546,-2.07828 0,-1.23708 -0.84121,-1.89685 -0.82472,-0.65977 -3.64524,-1.27006 l -1.05564,-0.24741 q -2.82052,-0.5938 -4.07409,-1.81438 -1.25357,-1.23707 -1.25357,-3.38133 0,-2.6061 1.84736,-4.02461 1.84737,-1.41851 5.24519,-1.41851 1.68242,0 3.16691,0.24741 1.48449,0.24742 2.73805,0.74225 z"
         id="path6031"
         inkscape:connector-curvature="0" />
      <path
         d="m 289.79305,421.35013 3.03495,0 3.7937,14.41602 3.77719,-14.41602 3.57927,0 3.79369,14.41602 3.77719,-14.41602 3.03495,0 -4.83283,18.47362 -3.57926,0 -3.97513,-15.14177 -3.99162,15.14177 -3.57927,0 -4.83283,-18.47362 z"
         id="path6033"
         inkscape:connector-curvature="0" />
      <path
         d="m 327.598,430.53746 q -3.67823,0 -5.09674,0.84121 -1.41851,0.84121 -1.41851,2.87001 0,1.61644 1.05564,2.57311 1.07213,0.94017 2.90299,0.94017 2.52363,0 4.04111,-1.78138 1.53397,-1.79788 1.53397,-4.76686 l 0,-0.67626 -3.01846,0 z m 6.05341,-1.25357 0,10.53986 -3.03495,0 0,-2.80403 q -1.03914,1.68242 -2.58961,2.49064 -1.55046,0.79173 -3.79369,0.79173 -2.83702,0 -4.51944,-1.58346 -1.66592,-1.59995 -1.66592,-4.27202 0,-3.11743 2.07828,-4.70088 2.09478,-1.58345 6.23485,-1.58345 l 4.25553,0 0,-0.2969 q 0,-2.09478 -1.38552,-3.23289 -1.36903,-1.1546 -3.85967,-1.1546 -1.58345,0 -3.08443,0.37937 -1.50099,0.37937 -2.88651,1.13811 l 0,-2.80403 q 1.66593,-0.64328 3.23289,-0.95667 1.56695,-0.32989 3.05144,-0.32989 4.00812,0 5.98744,2.07828 1.97931,2.07829 1.97931,6.30083 z"
         id="path6035"
         inkscape:connector-curvature="0" />
      <path
         d="m 353.21366,422.05938 0,2.83702 q -1.28656,-0.70925 -2.58961,-1.05563 -1.28655,-0.36288 -2.6061,-0.36288 -2.95248,0 -4.58541,1.88035 -1.63294,1.86386 -1.63294,5.24519 0,3.38134 1.63294,5.26169 1.63293,1.86385 4.58541,1.86385 1.31955,0 2.6061,-0.34638 1.30305,-0.36287 2.58961,-1.07213 l 0,2.80404 q -1.27006,0.59379 -2.63909,0.89069 -1.35253,0.2969 -2.8865,0.2969 -4.17306,0 -6.63071,-2.6226 -2.45766,-2.62259 -2.45766,-7.07606 0,-4.51944 2.47415,-7.10904 2.49064,-2.58961 6.81215,-2.58961 1.40201,0 2.73805,0.2969 1.33604,0.2804 2.58961,0.8577 z"
         id="path6037"
         inkscape:connector-curvature="0" />
      <path
         d="m 358.40936,414.15861 3.05145,0 0,15.15827 9.05537,-7.96675 3.87617,0 -9.79762,8.64301 10.20997,9.83061 -3.95863,0 -9.38526,-9.02238 0,9.02238 -3.05145,0 0,-25.66514 z"
         id="path6039"
         inkscape:connector-curvature="0" />
      <path
         d="m 392.73402,429.8282 0,1.48449 -13.95419,0 q 0.19793,3.13392 1.88035,4.78335 1.69892,1.63293 4.71737,1.63293 1.7484,0 3.38134,-0.42885 1.64943,-0.42885 3.26587,-1.28655 l 0,2.87001 q -1.63294,0.69276 -3.34834,1.05563 -1.71541,0.36288 -3.4803,0.36288 -4.42048,0 -7.01008,-2.57312 -2.57311,-2.57311 -2.57311,-6.96059 0,-4.53594 2.44115,-7.19152 2.45765,-2.67208 6.61422,-2.67208 3.72771,0 5.88847,2.40817 2.17725,2.39167 2.17725,6.51525 z m -3.03496,-0.89069 q -0.033,-2.49064 -1.40201,-3.97513 -1.35254,-1.48449 -3.59576,-1.48449 -2.54012,0 -4.0741,1.43501 -1.51747,1.435 -1.74839,4.0411 l 10.82026,-0.0165 z"
         id="path6041"
         inkscape:connector-curvature="0" />
      <path
         d="m 397.7153,414.15861 3.03495,0 0,25.66514 -3.03495,0 0,-25.66514 z"
         id="path6043"
         inkscape:connector-curvature="0" />
      <path
         d="m 410.08603,416.10494 0,5.24519 6.25134,0 0,2.35868 -6.25134,0 0,10.02854 q 0,2.25972 0.61029,2.903 0.62678,0.64328 2.52363,0.64328 l 3.11742,0 0,2.54012 -3.11742,0 q -3.51329,0 -4.84933,-1.30305 -1.33604,-1.31954 -1.33604,-4.78335 l 0,-10.02854 -2.22673,0 0,-2.35868 2.22673,0 0,-5.24519 3.05145,0 z"
         id="path6045"
         inkscape:connector-curvature="0" />
    </g>
    <path
       style="display:inline;fill:none;fill-rule:evenodd;stroke:#000000;stroke-width:1.79999995;stroke-linecap:butt;stroke-linejoin:miter;stroke-miterlimit:4;stroke-dasharray:none;stroke-opacity:1;marker-end:url(#marker5251)"
       d="m 115,12.362205 0.60383,77.431054"
       id="path3506"
       inkscape:connector-curvature="0" />
    <path
       style="fill:none;fill-rule:evenodd;stroke:#000000;stroke-width:1.79999995;stroke-linecap:butt;stroke-linejoin:miter;stroke-miterlimit:4;stroke-dasharray:none;stroke-opacity:1;marker-start:url(#Arrow2Lstart)"
       d="M 571.28004,91.770464 570,12.362205"
       id="path3512"
       inkscape:connector-curvature="0" />
    <path
       style="fill:none;fill-rule:evenodd;stroke:#000000;stroke-width:1.79999995;stroke-linecap:butt;stroke-linejoin:miter;stroke-miterlimit:4;stroke-dasharray:none;stroke-opacity:1;marker-end:url(#marker5586)"
       d="m 168.9582,225.20205 125.22065,136.3457"
       id="path3514"
       inkscape:connector-curvature="0" />
    <path
       style="fill:none;fill-rule:evenodd;stroke:#000000;stroke-width:1.79999995;stroke-linecap:butt;stroke-linejoin:miter;stroke-miterlimit:4;stroke-dasharray:none;stroke-opacity:1;marker-end:url(#marker5689)"
       d="M 520.20545,227.55145 399.25656,361.16789"
       id="path3516"
       inkscape:connector-curvature="0" />
    <path
       style="fill:none;fill-rule:evenodd;stroke:#000000;stroke-width:1.79999995;stroke-linecap:butt;stroke-linejoin:miter;stroke-miterlimit:4;stroke-dasharray:none;stroke-opacity:1;marker-end:url(#marker5798)"
       d="m 150,417.3622 118.94902,0.97734"
       id="path3518"
       inkscape:connector-curvature="0" />
    <g
       style="font-style:normal;font-weight:normal;font-size:27.5px;line-height:125%;font-family:Sans;letter-spacing:0px;word-spacing:0px;fill:#000000;fill-opacity:1;stroke:none;stroke-width:1px;stroke-linecap:butt;stroke-linejoin:miter;stroke-opacity:1"
       id="text5955">
      <path
         d="m 130.84277,37.728172 7.23755,0 0,2.202149 -7.23755,0 0,-2.202149 z"
         id="path6018"
         inkscape:connector-curvature="0" />
      <path
         d="m 142.84717,44.079491 4.43115,0 0,-15.29419 -4.82056,0.966797 0,-2.470703 4.7937,-0.966797 2.71241,0 0,17.764893 4.43115,0 0,2.282715 -11.54785,0 0,-2.282715 z"
         id="path6020"
         inkscape:connector-curvature="0" />
      <path
         d="m 165.68774,28.100487 q -2.09472,0 -3.15551,2.067871 -1.04737,2.054443 -1.04737,6.190185 0,4.122315 1.04737,6.190186 1.06079,2.054443 3.15551,2.054443 2.10816,0 3.15552,-2.054443 1.06079,-2.067871 1.06079,-6.190186 0,-4.135742 -1.06079,-6.190185 -1.04736,-2.067871 -3.15552,-2.067871 z m 0,-2.148438 q 3.37037,0 5.14283,2.672119 1.78589,2.658692 1.78589,7.734375 0,5.062256 -1.78589,7.734375 -1.77246,2.658692 -5.14283,2.658692 -3.37036,0 -5.15625,-2.658692 -1.77246,-2.672119 -1.77246,-7.734375 0,-5.075683 1.77246,-7.734375 1.78589,-2.672119 5.15625,-2.672119 z"
         id="path6022"
         inkscape:connector-curvature="0" />
    </g>
    <g
       style="font-style:normal;font-weight:normal;font-size:27.5px;line-height:125%;font-family:Sans;letter-spacing:0px;word-spacing:0px;fill:#000000;fill-opacity:1;stroke:none;stroke-width:1px;stroke-linecap:butt;stroke-linejoin:miter;stroke-opacity:1"
       id="text5959">
      <path
         d="m 583.84277,42.728172 7.23755,0 0,2.202149 -7.23755,0 0,-2.202149 z"
         id="path6011"
         inkscape:connector-curvature="0" />
      <path
         d="m 595.84717,49.079491 4.43115,0 0,-15.29419 -4.82056,0.966797 0,-2.470703 4.7937,-0.966797 2.71241,0 0,17.764893 4.43115,0 0,2.282715 -11.54785,0 0,-2.282715 z"
         id="path6013"
         inkscape:connector-curvature="0" />
      <path
         d="m 618.68774,33.100487 q -2.09472,0 -3.15551,2.067871 -1.04737,2.054443 -1.04737,6.190185 0,4.122315 1.04737,6.190186 1.06079,2.054443 3.15551,2.054443 2.10816,0 3.15552,-2.054443 1.06079,-2.067871 1.06079,-6.190186 0,-4.135742 -1.06079,-6.190185 -1.04736,-2.067871 -3.15552,-2.067871 z m 0,-2.148438 q 3.37037,0 5.14283,2.672119 1.78589,2.658692 1.78589,7.734375 0,5.062256 -1.78589,7.734375 -1.77246,2.658692 -5.14283,2.658692 -3.37036,0 -5.15625,-2.658692 -1.77246,-2.672119 -1.77246,-7.734375 0,-5.075683 1.77246,-7.734375 1.78589,-2.672119 5.15625,-2.672119 z"
         id="path6015"
         inkscape:connector-curvature="0" />
    </g>
    <g
       style="font-style:normal;font-weight:normal;font-size:27.5px;line-height:125%;font-family:Sans;letter-spacing:0px;word-spacing:0px;fill:#000000;fill-opacity:1;stroke:none;stroke-width:1px;stroke-linecap:butt;stroke-linejoin:miter;stroke-opacity:1"
       id="text5963">
      <path
         d="m 248.64893,264.121 0,7.47925 7.47924,0 0,2.28272 -7.47924,0 0,7.47924 -2.25586,0 0,-7.47924 -7.47925,0 0,-2.28272 7.47925,0 0,-7.47925 2.25586,0 z"
         id="path6004"
         inkscape:connector-curvature="0" />
      <path
         d="m 264.31909,279.0795 9.46655,0 0,2.28271 -12.72949,0 0,-2.28271 q 1.54419,-1.5979 4.20288,-4.28345 2.67212,-2.69897 3.35694,-3.47778 1.30249,-1.46363 1.81274,-2.47071 0.52368,-1.0205 0.52368,-2.00073 0,-1.5979 -1.12793,-2.60498 -1.1145,-1.00708 -2.91382,-1.00708 -1.27563,0 -2.69897,0.44312 -1.40991,0.44311 -3.02124,1.34277 l 0,-2.73926 q 1.63818,-0.65796 3.06152,-0.99365 1.42334,-0.33569 2.60498,-0.33569 3.11524,0 4.96827,1.55761 1.85302,1.55762 1.85302,4.1626 0,1.23535 -0.46997,2.34986 -0.45654,1.10107 -1.67846,2.60498 -0.3357,0.3894 -2.13501,2.25586 -1.79932,1.85302 -5.07569,5.19653 z"
         id="path6006"
         inkscape:connector-curvature="0" />
      <path
         d="m 285.29321,263.10049 q -2.09472,0 -3.15551,2.06788 -1.04737,2.05444 -1.04737,6.19018 0,4.12232 1.04737,6.19019 1.06079,2.05444 3.15551,2.05444 2.10816,0 3.15552,-2.05444 1.06079,-2.06787 1.06079,-6.19019 0,-4.13574 -1.06079,-6.19018 -1.04736,-2.06788 -3.15552,-2.06788 z m 0,-2.14843 q 3.37036,0 5.14283,2.67212 1.78588,2.65869 1.78588,7.73437 0,5.06226 -1.78588,7.73438 -1.77247,2.65869 -5.14283,2.65869 -3.37036,0 -5.15625,-2.65869 -1.77246,-2.67212 -1.77246,-7.73438 0,-5.07568 1.77246,-7.73437 1.78589,-2.67212 5.15625,-2.67212 z"
         id="path6008"
         inkscape:connector-curvature="0" />
    </g>
    <g
       style="font-style:normal;font-weight:normal;font-size:27.5px;line-height:125%;font-family:Sans;letter-spacing:0px;word-spacing:0px;fill:#000000;fill-opacity:1;stroke:none;stroke-width:1px;stroke-linecap:butt;stroke-linejoin:miter;stroke-opacity:1"
       id="text5963-9">
      <path
         d="m 505.14893,268.621 0,7.47925 7.47924,0 0,2.28272 -7.47924,0 0,7.47924 -2.25586,0 0,-7.47924 -7.47925,0 0,-2.28272 7.47925,0 0,-7.47925 2.25586,0 z"
         id="path5997"
         inkscape:connector-curvature="0" />
      <path
         d="m 520.81909,283.5795 9.46655,0 0,2.28271 -12.72949,0 0,-2.28271 q 1.54419,-1.5979 4.20288,-4.28345 2.67212,-2.69897 3.35694,-3.47778 1.30249,-1.46363 1.81274,-2.47071 0.52368,-1.0205 0.52368,-2.00073 0,-1.5979 -1.12793,-2.60498 -1.1145,-1.00708 -2.91382,-1.00708 -1.27563,0 -2.69897,0.44312 -1.40991,0.44311 -3.02124,1.34277 l 0,-2.73926 q 1.63818,-0.65796 3.06152,-0.99365 1.42334,-0.33569 2.60498,-0.33569 3.11524,0 4.96827,1.55761 1.85302,1.55762 1.85302,4.1626 0,1.23535 -0.46997,2.34986 -0.45654,1.10107 -1.67846,2.60498 -0.3357,0.3894 -2.13501,2.25586 -1.79932,1.85302 -5.07569,5.19653 z"
         id="path5999"
         inkscape:connector-curvature="0" />
      <path
         d="m 541.79321,267.60049 q -2.09472,0 -3.15551,2.06788 -1.04737,2.05444 -1.04737,6.19018 0,4.12232 1.04737,6.19019 1.06079,2.05444 3.15551,2.05444 2.10816,0 3.15552,-2.05444 1.06079,-2.06787 1.06079,-6.19019 0,-4.13574 -1.06079,-6.19018 -1.04736,-2.06788 -3.15552,-2.06788 z m 0,-2.14843 q 3.37036,0 5.14283,2.67212 1.78588,2.65869 1.78588,7.73437 0,5.06226 -1.78588,7.73438 -1.77247,2.65869 -5.14283,2.65869 -3.37036,0 -5.15625,-2.65869 -1.77246,-2.67212 -1.77246,-7.73438 0,-5.07568 1.77246,-7.73437 1.78589,-2.67212 5.15625,-2.67212 z"
         id="path6001"
         inkscape:connector-curvature="0" />
    </g>
    <g
       style="font-style:normal;font-weight:normal;font-size:27.5px;line-height:125%;font-family:Sans;letter-spacing:0px;word-spacing:0px;fill:#000000;fill-opacity:1;stroke:none;stroke-width:1px;stroke-linecap:butt;stroke-linejoin:miter;stroke-opacity:1"
       id="text5985">
      <path
         d="m 181.34277,393.72818 7.23755,0 0,2.20215 -7.23755,0 0,-2.20215 z"
         id="path5990"
         inkscape:connector-curvature="0" />
      <path
         d="m 195.21362,400.0795 9.46656,0 0,2.28271 -12.7295,0 0,-2.28271 q 1.54419,-1.5979 4.20288,-4.28345 2.67212,-2.69897 3.35694,-3.47778 1.30249,-1.46363 1.81274,-2.47071 0.52368,-1.0205 0.52368,-2.00073 0,-1.5979 -1.12793,-2.60498 -1.1145,-1.00708 -2.91381,-1.00708 -1.27564,0 -2.69898,0.44312 -1.40991,0.44311 -3.02124,1.34277 l 0,-2.73926 q 1.63818,-0.65796 3.06152,-0.99365 1.42334,-0.33569 2.60498,-0.33569 3.11524,0 4.96827,1.55761 1.85302,1.55762 1.85302,4.1626 0,1.23535 -0.46997,2.34986 -0.45654,1.10107 -1.67846,2.60498 -0.3357,0.3894 -2.13501,2.25586 -1.79932,1.85302 -5.07569,5.19653 z"
         id="path5992"
         inkscape:connector-curvature="0" />
      <path
         d="m 216.18774,384.10049 q -2.09472,0 -3.15551,2.06788 -1.04737,2.05444 -1.04737,6.19018 0,4.12232 1.04737,6.19019 1.06079,2.05444 3.15551,2.05444 2.10816,0 3.15552,-2.05444 1.06079,-2.06787 1.06079,-6.19019 0,-4.13574 -1.06079,-6.19018 -1.04736,-2.06788 -3.15552,-2.06788 z m 0,-2.14843 q 3.37037,0 5.14283,2.67212 1.78589,2.65869 1.78589,7.73437 0,5.06226 -1.78589,7.73438 -1.77246,2.65869 -5.14283,2.65869 -3.37036,0 -5.15625,-2.65869 -1.77246,-2.67212 -1.77246,-7.73438 0,-5.07568 1.77246,-7.73437 1.78589,-2.67212 5.15625,-2.67212 z"
         id="path5994"
         inkscape:connector-curvature="0" />
    </g>
  </g>
</svg>
