<?xml version="1.0" encoding="UTF-8" standalone="no"?>
<!-- Created with Inkscape (http://www.inkscape.org/) -->

<svg
   xmlns:dc="http://purl.org/dc/elements/1.1/"
   xmlns:cc="http://creativecommons.org/ns#"
   xmlns:rdf="http://www.w3.org/1999/02/22-rdf-syntax-ns#"
   xmlns:svg="http://www.w3.org/2000/svg"
   xmlns="http://www.w3.org/2000/svg"
   xmlns:sodipodi="http://sodipodi.sourceforge.net/DTD/sodipodi-0.dtd"
   xmlns:inkscape="http://www.inkscape.org/namespaces/inkscape"
   width="660.599"
   height="271.91373"
   id="svg2"
   version="1.1"
   inkscape:version="0.48.5 r10040"
   sodipodi:docname="Boltzmann.svg">
  <defs
     id="defs4" />
  <sodipodi:namedview
     id="base"
     pagecolor="#ffffff"
     bordercolor="#666666"
     borderopacity="1.0"
     inkscape:pageopacity="0.0"
     inkscape:pageshadow="2"
     inkscape:zoom="0.98994949"
     inkscape:cx="113.3242"
     inkscape:cy="14.229238"
     inkscape:document-units="px"
     inkscape:current-layer="layer1"
     showgrid="true"
     inkscape:snap-global="true"
     inkscape:snap-to-guides="false"
     inkscape:snap-center="true"
     inkscape:window-width="1855"
     inkscape:window-height="1056"
     inkscape:window-x="65"
     inkscape:window-y="24"
     inkscape:window-maximized="1"
     fit-margin-top="0"
     fit-margin-left="0"
     fit-margin-right="0"
     fit-margin-bottom="0">
    <inkscape:grid
       type="xygrid"
       id="grid3755"
       empspacing="5"
       visible="true"
       enabled="true"
       snapvisiblegridlinesonly="true"
       originx="-39.7005px"
       originy="-688.89079px" />
  </sodipodi:namedview>
  <metadata
     id="metadata7">
    <rdf:RDF>
      <cc:Work
         rdf:about="">
        <dc:format>image/svg+xml</dc:format>
        <dc:type
           rdf:resource="http://purl.org/dc/dcmitype/StillImage" />
        <dc:title></dc:title>
      </cc:Work>
    </rdf:RDF>
  </metadata>
  <g
     inkscape:label="Layer 1"
     inkscape:groupmode="layer"
     id="layer1"
     transform="translate(-39.7005,-91.55761)">
    <path
       transform="translate(-19.101578,-31.97438)"
       style="fill:#ffffff;fill-rule:evenodd;stroke:#000000;stroke-width:1px;stroke-linecap:butt;stroke-linejoin:miter;stroke-opacity:1"
       d="m 209.10158,154.33656 c 0,16.73676 -13.34169,30.30458 -29.7995,30.30458 -16.45781,0 -29.7995,-13.56782 -29.7995,-30.30458 0,-16.73675 13.34169,-30.30457 29.7995,-30.30457 16.45781,0 29.7995,13.56782 29.7995,30.30457 z"
       id="path2985"
       inkscape:connector-curvature="0" />
    <path
       transform="translate(200.49742,-31.97438)"
       style="fill:#ffffff;fill-rule:evenodd;stroke:#000000;stroke-width:1px;stroke-linecap:butt;stroke-linejoin:miter;stroke-opacity:1"
       d="m 209.10158,154.33656 c 0,16.73676 -13.34169,30.30458 -29.7995,30.30458 -16.45781,0 -29.7995,-13.56782 -29.7995,-30.30458 0,-16.73675 13.34169,-30.30457 29.7995,-30.30457 16.45781,0 29.7995,13.56782 29.7995,30.30457 z"
       id="path2985-1"
       inkscape:connector-curvature="0" />
    <path
       transform="translate(410.89842,-31.97438)"
       style="fill:#ffffff;fill-rule:evenodd;stroke:#000000;stroke-width:1px;stroke-linecap:butt;stroke-linejoin:miter;stroke-opacity:1"
       d="m 209.10158,154.33656 c 0,16.73676 -13.34169,30.30458 -29.7995,30.30458 -16.45781,0 -29.7995,-13.56782 -29.7995,-30.30458 0,-16.73675 13.34169,-30.30457 29.7995,-30.30457 16.45781,0 29.7995,13.56782 29.7995,30.30457 z"
       id="path2985-9"
       inkscape:connector-curvature="0" />
    <path
       transform="translate(-109.30208,178.3302)"
       style="fill:#ffffff;fill-rule:evenodd;stroke:#000000;stroke-width:1px;stroke-linecap:butt;stroke-linejoin:miter;stroke-opacity:1"
       d="m 209.10158,154.33656 c 0,16.73676 -13.34169,30.30458 -29.7995,30.30458 -16.45781,0 -29.7995,-13.56782 -29.7995,-30.30458 0,-16.73675 13.34169,-30.30457 29.7995,-30.30457 16.45781,0 29.7995,13.56782 29.7995,30.30457 z"
       id="path2985-3"
       inkscape:connector-curvature="0" />
    <path
       transform="translate(80.697922,177.72104)"
       style="fill:#ffffff;fill-rule:evenodd;stroke:#000000;stroke-width:1px;stroke-linecap:butt;stroke-linejoin:miter;stroke-opacity:1"
       d="m 209.10158,154.33656 c 0,16.73676 -13.34169,30.30458 -29.7995,30.30458 -16.45781,0 -29.7995,-13.56782 -29.7995,-30.30458 0,-16.73675 13.34169,-30.30457 29.7995,-30.30457 16.45781,0 29.7995,13.56782 29.7995,30.30457 z"
       id="path2985-6"
       inkscape:connector-curvature="0" />
    <path
       transform="translate(310.69792,177.72104)"
       style="fill:#ffffff;fill-rule:evenodd;stroke:#000000;stroke-width:1px;stroke-linecap:butt;stroke-linejoin:miter;stroke-opacity:1"
       d="m 209.10158,154.33656 c 0,16.73676 -13.34169,30.30458 -29.7995,30.30458 -16.45781,0 -29.7995,-13.56782 -29.7995,-30.30458 0,-16.73675 13.34169,-30.30457 29.7995,-30.30457 16.45781,0 29.7995,13.56782 29.7995,30.30457 z"
       id="path2985-36"
       inkscape:connector-curvature="0" />
    <path
       transform="translate(490.69792,177.72104)"
       style="fill:#ffffff;fill-rule:evenodd;stroke:#000000;stroke-width:1px;stroke-linecap:butt;stroke-linejoin:miter;stroke-opacity:1"
       d="m 209.10158,154.33656 c 0,16.73676 -13.34169,30.30458 -29.7995,30.30458 -16.45781,0 -29.7995,-13.56782 -29.7995,-30.30458 0,-16.73675 13.34169,-30.30457 29.7995,-30.30457 16.45781,0 29.7995,13.56782 29.7995,30.30457 z"
       id="path2985-67"
       inkscape:connector-curvature="0" />
    <path
       style="fill:none;stroke:#000000;stroke-width:1px;stroke-linecap:butt;stroke-linejoin:miter;stroke-opacity:1"
       d="m 160,152.36218 -90,150"
       id="path3818"
       inkscape:connector-type="polyline"
       inkscape:connector-curvature="3" />
    <path
       style="fill:none;stroke:#000000;stroke-width:1px;stroke-linecap:butt;stroke-linejoin:miter;stroke-opacity:1"
       d="m 380,152.36218 -310,150"
       id="path3820"
       inkscape:connector-type="polyline"
       inkscape:connector-curvature="3" />
    <path
       style="fill:none;stroke:#000000;stroke-width:1px;stroke-linecap:butt;stroke-linejoin:miter;stroke-opacity:1"
       d="m 590,152.36218 -520,150"
       id="path3822"
       inkscape:connector-type="polyline"
       inkscape:connector-curvature="3" />
    <path
       style="fill:none;stroke:#000000;stroke-width:1px;stroke-linecap:butt;stroke-linejoin:miter;stroke-opacity:1"
       d="m 160,152.36218 100,150"
       id="path3824"
       inkscape:connector-type="polyline"
       inkscape:connector-curvature="3" />
    <path
       style="fill:none;stroke:#000000;stroke-width:1px;stroke-linecap:butt;stroke-linejoin:miter;stroke-opacity:1"
       d="m 380,152.36218 -120,150"
       id="path3826"
       inkscape:connector-type="polyline"
       inkscape:connector-curvature="3" />
    <path
       style="fill:none;stroke:#000000;stroke-width:1px;stroke-linecap:butt;stroke-linejoin:miter;stroke-opacity:1"
       d="m 590,152.36218 -330,150"
       id="path3828"
       inkscape:connector-type="polyline"
       inkscape:connector-curvature="3" />
    <path
       style="fill:none;stroke:#000000;stroke-width:1px;stroke-linecap:butt;stroke-linejoin:miter;stroke-opacity:1"
       d="m 160,152.36218 330,150"
       id="path3830"
       inkscape:connector-type="polyline"
       inkscape:connector-curvature="3" />
    <path
       style="fill:none;stroke:#000000;stroke-width:1px;stroke-linecap:butt;stroke-linejoin:miter;stroke-opacity:1"
       d="m 380,152.36218 110,150"
       id="path3832"
       inkscape:connector-type="polyline"
       inkscape:connector-curvature="3" />
    <path
       style="fill:none;stroke:#000000;stroke-width:1px;stroke-linecap:butt;stroke-linejoin:miter;stroke-opacity:1"
       d="m 160,152.36218 510,150"
       id="path3836"
       inkscape:connector-type="polyline"
       inkscape:connector-curvature="3" />
    <path
       style="fill:none;stroke:#000000;stroke-width:1px;stroke-linecap:butt;stroke-linejoin:miter;stroke-opacity:1"
       d="m 670,302.36218 -290,-150"
       id="path3838"
       inkscape:connector-type="polyline"
       inkscape:connector-curvature="3" />
    <path
       style="fill:none;stroke:#000000;stroke-width:1px;stroke-linecap:butt;stroke-linejoin:miter;stroke-opacity:1"
       d="m 590,152.36218 80,150"
       id="path3840"
       inkscape:connector-type="polyline"
       inkscape:connector-curvature="3" />
    <path
       style="fill:none;stroke:#000000;stroke-width:1px;stroke-linecap:butt;stroke-linejoin:miter;stroke-opacity:1"
       d="m 490,302.36218 100,-150"
       id="path3842"
       inkscape:connector-type="polyline"
       inkscape:connector-curvature="3" />
    <g
       style="font-size:40px;font-style:normal;font-weight:normal;line-height:125%;letter-spacing:0px;word-spacing:0px;fill:#000000;fill-opacity:1;stroke:none;font-family:Sans"
       id="text3844">
      <path
         d="m 148.88672,107.7821 3.94531,0 0,11.95313 14.33594,0 0,-11.95313 3.94531,0 0,29.16016 -3.94531,0 0,-13.88672 -14.33594,0 0,13.88672 -3.94531,0 0,-29.16016"
         id="path3929"
         inkscape:connector-curvature="0" />
    </g>
    <g
       style="font-size:40px;font-style:normal;font-weight:normal;line-height:125%;letter-spacing:0px;word-spacing:0px;fill:#000000;fill-opacity:1;stroke:none;font-family:Sans"
       id="text3848">
      <path
         d="m 368.88672,107.7821 3.94531,0 0,11.95313 14.33594,0 0,-11.95313 3.94531,0 0,29.16016 -3.94531,0 0,-13.88672 -14.33594,0 0,13.88672 -3.94531,0 0,-29.16016"
         id="path3926"
         inkscape:connector-curvature="0" />
    </g>
    <g
       style="font-size:40px;font-style:normal;font-weight:normal;line-height:125%;letter-spacing:0px;word-spacing:0px;fill:#000000;fill-opacity:1;stroke:none;font-family:Sans"
       id="text3852">
      <path
         d="m 578.88672,107.7821 3.94531,0 0,11.95313 14.33594,0 0,-11.95313 3.94531,0 0,29.16016 -3.94531,0 0,-13.88672 -14.33594,0 0,13.88672 -3.94531,0 0,-29.16016"
         id="path3923"
         inkscape:connector-curvature="0" />
    </g>
    <g
       style="font-size:40px;font-style:normal;font-weight:normal;line-height:125%;letter-spacing:0px;word-spacing:0px;fill:#000000;fill-opacity:1;stroke:none;font-family:Sans"
       id="text3856">
      <path
         d="m 67.773437,346.94226 -11.132812,-29.16016 4.121094,0 L 70,342.33289 l 9.257812,-24.55079 4.101563,0 -11.113281,29.16016 -4.472657,0"
         id="path3920"
         inkscape:connector-curvature="0" />
    </g>
    <g
       style="font-size:40px;font-style:normal;font-weight:normal;line-height:125%;letter-spacing:0px;word-spacing:0px;fill:#000000;fill-opacity:1;stroke:none;font-family:Sans"
       id="text3860">
      <path
         d="m 257.77344,346.94226 -11.13282,-29.16016 4.1211,0 9.23828,24.55079 9.25781,-24.55079 4.10156,0 -11.11328,29.16016 -4.47265,0"
         id="path3917"
         inkscape:connector-curvature="0" />
    </g>
    <g
       style="font-size:40px;font-style:normal;font-weight:normal;line-height:125%;letter-spacing:0px;word-spacing:0px;fill:#000000;fill-opacity:1;stroke:none;font-family:Sans"
       id="text3864">
      <path
         d="m 487.77344,346.94226 -11.13282,-29.16016 4.1211,0 9.23828,24.55079 9.25781,-24.55079 4.10156,0 -11.11328,29.16016 -4.47265,0"
         id="path3914"
         inkscape:connector-curvature="0" />
    </g>
    <g
       style="font-size:40px;font-style:normal;font-weight:normal;line-height:125%;letter-spacing:0px;word-spacing:0px;fill:#000000;fill-opacity:1;stroke:none;font-family:Sans"
       id="text3868">
      <path
         d="m 667.77344,346.94226 -11.13282,-29.16016 4.1211,0 9.23828,24.55079 9.25781,-24.55079 4.10156,0 -11.11328,29.16016 -4.47265,0"
         id="path3911"
         inkscape:connector-curvature="0" />
    </g>
  </g>
</svg>
