<?xml version="1.0" encoding="UTF-8" standalone="no"?>
<!-- Created with Inkscape (http://www.inkscape.org/) -->

<svg
   xmlns:dc="http://purl.org/dc/elements/1.1/"
   xmlns:cc="http://creativecommons.org/ns#"
   xmlns:rdf="http://www.w3.org/1999/02/22-rdf-syntax-ns#"
   xmlns:svg="http://www.w3.org/2000/svg"
   xmlns="http://www.w3.org/2000/svg"
   xmlns:sodipodi="http://sodipodi.sourceforge.net/DTD/sodipodi-0.dtd"
   xmlns:inkscape="http://www.inkscape.org/namespaces/inkscape"
   inkscape:version="0.91 r13725"
   version="1.1"
   id="svg2"
   viewBox="0 0 521.95937 154.27734"
   height="43.540493mm"
   width="147.30853mm"
   sodipodi:docname="Markov.svg">
  <sodipodi:namedview
     inkscape:window-maximized="1"
     inkscape:window-y="24"
     inkscape:window-x="65"
     inkscape:window-height="1056"
     inkscape:window-width="1855"
     showguides="false"
     showgrid="true"
     inkscape:current-layer="layer1"
     inkscape:document-units="px"
     inkscape:cy="3.9999699"
     inkscape:cx="198.19666"
     inkscape:zoom="1.979899"
     inkscape:pageshadow="2"
     inkscape:pageopacity="0.0"
     borderopacity="1.0"
     bordercolor="#666666"
     pagecolor="#ffffff"
     id="base"
     fit-margin-top="0"
     fit-margin-left="0"
     fit-margin-right="0"
     fit-margin-bottom="0">
    <inkscape:grid
       id="grid3336"
       type="xygrid"
       originx="-15.812178"
       originy="-889.99999" />
  </sodipodi:namedview>
  <defs
     id="defs4" />
  <metadata
     id="metadata7">
    <rdf:RDF>
      <cc:Work
         rdf:about="">
        <dc:format>image/svg+xml</dc:format>
        <dc:type
           rdf:resource="http://purl.org/dc/dcmitype/StillImage" />
        <dc:title></dc:title>
      </cc:Work>
    </rdf:RDF>
  </metadata>
  <g
     id="layer1"
     inkscape:groupmode="layer"
     inkscape:label="Layer 1"
     transform="translate(-15.812178,-8.0848618)">
    <path
       style="opacity:1;fill:#ffffff;stroke:#000000;stroke-width:1;stroke-miterlimit:4;stroke-dasharray:none"
       d="m 89.596451,40.821594 a 7.5,7.5 0 0 1 -7.5,7.5 7.5,7.5 0 0 1 -7.5,-7.5 7.5,7.5 0 0 1 7.5,-7.5 7.5,7.5 0 0 1 7.5,7.5 z"
       id="path3356" />
    <path
       style="opacity:1;fill:#ffffff;stroke:#000000;stroke-width:1;stroke-miterlimit:4;stroke-dasharray:none"
       d="m 114.59645,40.821594 a 7.5,7.5 0 0 1 -7.5,7.5 7.5,7.5 0 0 1 -7.499999,-7.5 7.5,7.5 0 0 1 7.499999,-7.5 7.5,7.5 0 0 1 7.5,7.5 z"
       id="path3358" />
    <path
       style="opacity:1;fill:#ffffff;stroke:#000000;stroke-width:1;stroke-miterlimit:4;stroke-dasharray:none"
       d="m 139.59645,40.821594 a 7.5,7.5 0 0 1 -7.5,7.5 7.5,7.5 0 0 1 -7.5,-7.5 7.5,7.5 0 0 1 7.5,-7.5 7.5,7.5 0 0 1 7.5,7.5 z"
       id="path3360" />
    <path
       style="opacity:1;fill:none;stroke:#000000;stroke-width:1;stroke-miterlimit:4;stroke-dasharray:none"
       d="m 69.596451,28.321596 74.999999,0 0,25 -74.999999,0 z"
       id="rect3364" />
    <g
       transform="scale(1.1513411,0.86855234)"
       style="font-style:normal;font-weight:normal;font-size:13.03462029px;line-height:125%;font-family:Sans;letter-spacing:0px;word-spacing:0px;fill:#000000;fill-opacity:1;stroke:none;stroke-width:1px;stroke-linecap:butt;stroke-linejoin:miter;stroke-opacity:1"
       id="text3372">
      <path
         d="m 92.757199,42.612075 1.171079,0 0,7.255599 q 0,1.362016 -0.521893,1.973014 -0.51553,0.610998 -1.667515,0.610998 l -0.44552,0 0,-0.992871 0.311864,0 q 0.668279,0 0.910132,-0.311864 0.241853,-0.305499 0.241853,-1.279277 l 0,-7.255599 z m 0,-2.774948 1.171079,0 0,1.482942 -1.171079,0 0,-1.482942 z"
         style=""
         id="path5423" />
    </g>
    <path
       style="opacity:1;fill:#ffffff;stroke:#000000;stroke-width:1;stroke-miterlimit:4;stroke-dasharray:none"
       d="m 36.312178,121.0754 a 7.5,7.5 0 0 1 -7.5,7.5 7.5,7.5 0 0 1 -7.5,-7.5 7.5,7.5 0 0 1 7.5,-7.5 7.5,7.5 0 0 1 7.5,7.5 z"
       id="path3356-6" />
    <path
       style="opacity:1;fill:#ffffff;stroke:#000000;stroke-width:1;stroke-miterlimit:4;stroke-dasharray:none"
       d="m 61.31218,121.0754 a 7.5,7.5 0 0 1 -7.5,7.5 7.5,7.5 0 0 1 -7.5,-7.5 7.5,7.5 0 0 1 7.5,-7.5 7.5,7.5 0 0 1 7.5,7.5 z"
       id="path3358-3" />
    <path
       style="opacity:1;fill:#ffffff;stroke:#000000;stroke-width:1;stroke-miterlimit:4;stroke-dasharray:none"
       d="m 86.312172,121.0754 a 7.5,7.5 0 0 1 -7.5,7.5 7.5,7.5 0 0 1 -7.5,-7.5 7.5,7.5 0 0 1 7.5,-7.5 7.5,7.5 0 0 1 7.5,7.5 z"
       id="path3360-3" />
    <path
       style="opacity:1;fill:none;stroke:#000000;stroke-width:1;stroke-miterlimit:4;stroke-dasharray:none"
       d="m 16.312178,108.5754 75,0 0,25 -75,0 z"
       id="rect3364-6" />
    <g
       transform="scale(1.0698001,0.93475407)"
       style="font-style:normal;font-weight:normal;font-size:15.19588852px;line-height:125%;font-family:Sans;letter-spacing:0px;word-spacing:0px;fill:#000000;fill-opacity:1;stroke:none;stroke-width:1px;stroke-linecap:butt;stroke-linejoin:miter;stroke-opacity:1"
       id="text3422">
      <path
         d="m 50.151868,127.13271 1.365255,0 0,8.31025 -1.365255,0 0,-8.31025 z m 0,-3.23506 1.365255,0 0,1.72883 -1.365255,0 0,-1.72883 z"
         style=""
         id="path5416" />
    </g>
    <path
       style="opacity:1;fill:#ffffff;stroke:#000000;stroke-width:1;stroke-miterlimit:4;stroke-dasharray:none"
       d="m 193.63705,40.81905 a 7.5,7.5 0 0 1 -7.5,7.5 7.5,7.5 0 0 1 -7.5,-7.5 7.5,7.5 0 0 1 7.5,-7.5 7.5,7.5 0 0 1 7.5,7.5 z"
       id="path3356-2" />
    <path
       style="opacity:1;fill:#ffffff;stroke:#000000;stroke-width:1;stroke-miterlimit:4;stroke-dasharray:none"
       d="m 218.63705,40.81905 a 7.5,7.5 0 0 1 -7.5,7.5 7.5,7.5 0 0 1 -7.5,-7.5 7.5,7.5 0 0 1 7.5,-7.5 7.5,7.5 0 0 1 7.5,7.5 z"
       id="path3358-8" />
    <path
       style="opacity:1;fill:#ffffff;stroke:#000000;stroke-width:1;stroke-miterlimit:4;stroke-dasharray:none"
       d="m 243.63705,40.81905 a 7.5,7.5 0 0 1 -7.5,7.5 7.5,7.5 0 0 1 -7.5,-7.5 7.5,7.5 0 0 1 7.5,-7.5 7.5,7.5 0 0 1 7.5,7.5 z"
       id="path3360-9" />
    <path
       style="opacity:1;fill:none;stroke:#000000;stroke-width:1;stroke-miterlimit:4;stroke-dasharray:none"
       d="m 173.63705,28.319052 75,0 0,25 -75,0 z"
       id="rect3364-1" />
    <g
       transform="scale(1.1513411,0.86855234)"
       style="font-style:normal;font-weight:normal;font-size:13.03462029px;line-height:125%;font-family:Sans;letter-spacing:0px;word-spacing:0px;fill:#000000;fill-opacity:1;stroke:none;stroke-width:1px;stroke-linecap:butt;stroke-linejoin:miter;stroke-opacity:1"
       id="text3372-8">
      <path
         d="m 183.12191,42.609149 1.17108,0 0,7.255599 q 0,1.362016 -0.52189,1.973014 -0.51553,0.610998 -1.66751,0.610998 l -0.44552,0 0,-0.992871 0.31186,0 q 0.66828,0 0.91013,-0.311864 0.24185,-0.305499 0.24185,-1.279277 l 0,-7.255599 z m 0,-2.774948 1.17108,0 0,1.482942 -1.17108,0 0,-1.482942 z"
         style=""
         id="path5409" />
    </g>
    <path
       style="opacity:1;fill:#ffffff;stroke:#000000;stroke-width:1;stroke-miterlimit:4;stroke-dasharray:none"
       d="m 140.35278,121.07286 a 7.5,7.5 0 0 1 -7.5,7.5 7.5,7.5 0 0 1 -7.5,-7.5 7.5,7.5 0 0 1 7.5,-7.5 7.5,7.5 0 0 1 7.5,7.5 z"
       id="path3356-6-4" />
    <path
       style="opacity:1;fill:#ffffff;stroke:#000000;stroke-width:1;stroke-miterlimit:4;stroke-dasharray:none"
       d="m 165.35278,121.07286 a 7.5,7.5 0 0 1 -7.5,7.5 7.5,7.5 0 0 1 -7.5,-7.5 7.5,7.5 0 0 1 7.5,-7.5 7.5,7.5 0 0 1 7.5,7.5 z"
       id="path3358-3-8" />
    <path
       style="opacity:1;fill:#ffffff;stroke:#000000;stroke-width:1;stroke-miterlimit:4;stroke-dasharray:none"
       d="m 190.35277,121.07286 a 7.5,7.5 0 0 1 -7.5,7.5 7.5,7.5 0 0 1 -7.5,-7.5 7.5,7.5 0 0 1 7.5,-7.5 7.5,7.5 0 0 1 7.5,7.5 z"
       id="path3360-3-7" />
    <path
       style="opacity:1;fill:none;stroke:#000000;stroke-width:1;stroke-miterlimit:4;stroke-dasharray:none"
       d="m 120.35279,108.57286 75,0 0,25 -75,0 z"
       id="rect3364-6-0" />
    <g
       transform="scale(1.0698001,0.93475407)"
       style="font-style:normal;font-weight:normal;font-size:15.19588852px;line-height:125%;font-family:Sans;letter-spacing:0px;word-spacing:0px;fill:#000000;fill-opacity:1;stroke:none;stroke-width:1px;stroke-linecap:butt;stroke-linejoin:miter;stroke-opacity:1"
       id="text3422-3">
      <path
         d="m 147.40425,127.12998 1.36525,0 0,8.31025 -1.36525,0 0,-8.31025 z m 0,-3.23506 1.36525,0 0,1.72883 -1.36525,0 0,-1.72883 z"
         style=""
         id="path5402" />
    </g>
    <path
       style="opacity:1;fill:#ffffff;stroke:#000000;stroke-width:1;stroke-miterlimit:4;stroke-dasharray:none"
       d="m 299.59644,41.374889 a 7.5,7.5 0 0 1 -7.5,7.5 7.5,7.5 0 0 1 -7.5,-7.5 7.5,7.5 0 0 1 7.5,-7.5 7.5,7.5 0 0 1 7.5,7.5 z"
       id="path3356-7" />
    <path
       style="opacity:1;fill:#ffffff;stroke:#000000;stroke-width:1;stroke-miterlimit:4;stroke-dasharray:none"
       d="m 324.59644,41.374889 a 7.5,7.5 0 0 1 -7.5,7.5 7.5,7.5 0 0 1 -7.5,-7.5 7.5,7.5 0 0 1 7.5,-7.5 7.5,7.5 0 0 1 7.5,7.5 z"
       id="path3358-6" />
    <path
       style="opacity:1;fill:#ffffff;stroke:#000000;stroke-width:1;stroke-miterlimit:4;stroke-dasharray:none"
       d="m 349.59644,41.374889 a 7.5,7.5 0 0 1 -7.5,7.5 7.5,7.5 0 0 1 -7.5,-7.5 7.5,7.5 0 0 1 7.5,-7.5 7.5,7.5 0 0 1 7.5,7.5 z"
       id="path3360-4" />
    <path
       style="opacity:1;fill:none;stroke:#000000;stroke-width:1;stroke-miterlimit:4;stroke-dasharray:none"
       d="m 279.59644,28.874889 75,0 0,25 -75,0 z"
       id="rect3364-9" />
    <g
       transform="scale(1.1513411,0.86855234)"
       style="font-style:normal;font-weight:normal;font-size:13.03462029px;line-height:125%;font-family:Sans;letter-spacing:0px;word-spacing:0px;fill:#000000;fill-opacity:1;stroke:none;stroke-width:1px;stroke-linecap:butt;stroke-linejoin:miter;stroke-opacity:1"
       id="text3372-80">
      <path
         d="m 275.1532,43.249111 1.17107,0 0,7.255599 q 0,1.362016 -0.52189,1.973014 -0.51553,0.610997 -1.66751,0.610997 l -0.44552,0 0,-0.992871 0.31186,0 q 0.66828,0 0.91013,-0.311864 0.24186,-0.305498 0.24186,-1.279276 l 0,-7.255599 z m 0,-2.774949 1.17107,0 0,1.482943 -1.17107,0 0,-1.482943 z"
         style=""
         id="path5395" />
    </g>
    <path
       style="opacity:1;fill:#ffffff;stroke:#000000;stroke-width:1;stroke-miterlimit:4;stroke-dasharray:none"
       d="m 246.31218,121.6287 a 7.5,7.5 0 0 1 -7.5,7.5 7.5,7.5 0 0 1 -7.5,-7.5 7.5,7.5 0 0 1 7.5,-7.5 7.5,7.5 0 0 1 7.5,7.5 z"
       id="path3356-6-43" />
    <path
       style="opacity:1;fill:#ffffff;stroke:#000000;stroke-width:1;stroke-miterlimit:4;stroke-dasharray:none"
       d="m 271.31216,121.6287 a 7.5,7.5 0 0 1 -7.5,7.5 7.5,7.5 0 0 1 -7.5,-7.5 7.5,7.5 0 0 1 7.5,-7.5 7.5,7.5 0 0 1 7.5,7.5 z"
       id="path3358-3-9" />
    <path
       style="opacity:1;fill:#ffffff;stroke:#000000;stroke-width:1;stroke-miterlimit:4;stroke-dasharray:none"
       d="m 296.31216,121.6287 a 7.5,7.5 0 0 1 -7.5,7.5 7.5,7.5 0 0 1 -7.5,-7.5 7.5,7.5 0 0 1 7.5,-7.5 7.5,7.5 0 0 1 7.5,7.5 z"
       id="path3360-3-8" />
    <path
       style="opacity:1;fill:none;stroke:#000000;stroke-width:1;stroke-miterlimit:4;stroke-dasharray:none"
       d="m 226.31218,109.1287 75,0 0,25 -75,0 z"
       id="rect3364-6-4" />
    <g
       transform="scale(1.0698001,0.93475407)"
       style="font-style:normal;font-weight:normal;font-size:15.19588852px;line-height:125%;font-family:Sans;letter-spacing:0px;word-spacing:0px;fill:#000000;fill-opacity:1;stroke:none;stroke-width:1px;stroke-linecap:butt;stroke-linejoin:miter;stroke-opacity:1"
       id="text3422-4">
      <path
         d="m 246.45022,127.72461 1.36526,0 0,8.31026 -1.36526,0 0,-8.31026 z m 0,-3.23506 1.36526,0 0,1.72883 -1.36526,0 0,-1.72883 z"
         style=""
         id="path5388" />
    </g>
    <path
       style="opacity:1;fill:#ffffff;stroke:#000000;stroke-width:1;stroke-miterlimit:4;stroke-dasharray:none"
       d="m 482.27155,43.64901 a 7.5,7.5 0 0 1 -7.5,7.5 7.5,7.5 0 0 1 -7.5,-7.5 7.5,7.5 0 0 1 7.5,-7.5 7.5,7.5 0 0 1 7.5,7.5 z"
       id="path3356-9" />
    <path
       style="opacity:1;fill:#ffffff;stroke:#000000;stroke-width:1;stroke-miterlimit:4;stroke-dasharray:none"
       d="m 507.27155,43.64901 a 7.5,7.5 0 0 1 -7.5,7.5 7.5,7.5 0 0 1 -7.5,-7.5 7.5,7.5 0 0 1 7.5,-7.5 7.5,7.5 0 0 1 7.5,7.5 z"
       id="path3358-9" />
    <path
       style="opacity:1;fill:#ffffff;stroke:#000000;stroke-width:1;stroke-miterlimit:4;stroke-dasharray:none"
       d="m 532.27155,43.64901 a 7.5,7.5 0 0 1 -7.5,7.5 7.5,7.5 0 0 1 -7.5,-7.5 7.5,7.5 0 0 1 7.5,-7.5 7.5,7.5 0 0 1 7.5,7.5 z"
       id="path3360-36" />
    <path
       style="opacity:1;fill:none;stroke:#000000;stroke-width:1;stroke-miterlimit:4;stroke-dasharray:none"
       d="m 462.27155,31.149012 75,0 0,25 -75,0 z"
       id="rect3364-7" />
    <g
       transform="scale(1.1513411,0.86855234)"
       style="font-style:normal;font-weight:normal;font-size:13.03462029px;line-height:125%;font-family:Sans;letter-spacing:0px;word-spacing:0px;fill:#000000;fill-opacity:1;stroke:none;stroke-width:1px;stroke-linecap:butt;stroke-linejoin:miter;stroke-opacity:1"
       id="text3372-7">
      <path
         d="m 433.8161,45.867393 1.17108,0 0,7.255599 q 0,1.362016 -0.5219,1.973014 -0.51553,0.610998 -1.66751,0.610998 l -0.44552,0 0,-0.992872 0.31186,0 q 0.66828,0 0.91013,-0.311863 0.24186,-0.305499 0.24186,-1.279277 l 0,-7.255599 z m 0,-2.774949 1.17108,0 0,1.482943 -1.17108,0 0,-1.482943 z"
         style=""
         id="path5381" />
    </g>
    <path
       style="opacity:1;fill:#ffffff;stroke:#000000;stroke-width:1;stroke-miterlimit:4;stroke-dasharray:none"
       d="m 428.98727,123.90282 a 7.5,7.5 0 0 1 -7.5,7.5 7.5,7.5 0 0 1 -7.5,-7.5 7.5,7.5 0 0 1 7.5,-7.5 7.5,7.5 0 0 1 7.5,7.5 z"
       id="path3356-6-8" />
    <path
       style="opacity:1;fill:#ffffff;stroke:#000000;stroke-width:1;stroke-miterlimit:4;stroke-dasharray:none"
       d="m 453.98727,123.90282 a 7.5,7.5 0 0 1 -7.5,7.5 7.5,7.5 0 0 1 -7.5,-7.5 7.5,7.5 0 0 1 7.5,-7.5 7.5,7.5 0 0 1 7.5,7.5 z"
       id="path3358-3-93" />
    <path
       style="opacity:1;fill:#ffffff;stroke:#000000;stroke-width:1;stroke-miterlimit:4;stroke-dasharray:none"
       d="m 478.98727,123.90282 a 7.5,7.5 0 0 1 -7.5,7.5 7.5,7.5 0 0 1 -7.5,-7.5 7.5,7.5 0 0 1 7.5,-7.5 7.5,7.5 0 0 1 7.5,7.5 z"
       id="path3360-3-4" />
    <path
       style="opacity:1;fill:none;stroke:#000000;stroke-width:1;stroke-miterlimit:4;stroke-dasharray:none"
       d="m 408.98727,111.40282 75,0 0,25 -75,0 z"
       id="rect3364-6-3" />
    <g
       transform="scale(1.0698001,0.93475407)"
       style="font-style:normal;font-weight:normal;font-size:15.19588852px;line-height:125%;font-family:Sans;letter-spacing:0px;word-spacing:0px;fill:#000000;fill-opacity:1;stroke:none;stroke-width:1px;stroke-linecap:butt;stroke-linejoin:miter;stroke-opacity:1"
       id="text3422-31">
      <path
         d="m 417.20654,130.15748 1.36526,0 0,8.31025 -1.36526,0 0,-8.31025 z m 0,-3.23507 1.36526,0 0,1.72883 -1.36526,0 0,-1.72883 z"
         style=""
         id="path5374" />
    </g>
    <path
       id="path3530"
       d="M 57.960602,114.82728 102.94803,47.069718"
       style="fill:none;fill-rule:evenodd;stroke:#000000;stroke-width:1px;stroke-linecap:butt;stroke-linejoin:miter;stroke-opacity:1" />
    <path
       id="path3532"
       d="m 111.10541,47.160196 42.73841,67.574064"
       style="fill:none;fill-rule:evenodd;stroke:#000000;stroke-width:1px;stroke-linecap:butt;stroke-linejoin:miter;stroke-opacity:1" />
    <path
       id="path3534"
       d="M 155,122.3622 206.88421,46.996617"
       style="fill:none;fill-rule:evenodd;stroke:#000000;stroke-width:1px;stroke-linecap:butt;stroke-linejoin:miter;stroke-opacity:1" />
    <path
       id="path3536"
       d="M 215.23258,47.102052 259.71664,115.3457"
       style="fill:none;fill-rule:evenodd;stroke:#000000;stroke-width:1px;stroke-linecap:butt;stroke-linejoin:miter;stroke-opacity:1" />
    <path
       id="path3538"
       d="M 267.96059,115.38058 312.94801,47.623013"
       style="fill:none;fill-rule:evenodd;stroke:#000000;stroke-width:1px;stroke-linecap:butt;stroke-linejoin:miter;stroke-opacity:1" />
    <path
       id="path3540"
       d="M 450.6357,117.65469 495.62312,49.897133"
       style="fill:none;fill-rule:evenodd;stroke:#000000;stroke-width:1px;stroke-linecap:butt;stroke-linejoin:miter;stroke-opacity:1" />
    <path
       inkscape:connector-curvature="0"
       id="path3542"
       d="m 370,17.362205 c 0,124.999995 0,124.999995 0,124.999995 l 0,0 0,0"
       style="fill:none;fill-rule:evenodd;stroke:#000000;stroke-width:4;stroke-linecap:butt;stroke-linejoin:miter;stroke-miterlimit:4;stroke-dasharray:none;stroke-opacity:1" />
    <path
       inkscape:connector-curvature="0"
       id="path3544"
       d="M 380,17.362205 C 380,142.3622 380,142.3622 380,142.3622"
       style="fill:none;fill-rule:evenodd;stroke:#000000;stroke-width:4;stroke-linecap:butt;stroke-linejoin:miter;stroke-miterlimit:4;stroke-dasharray:none;stroke-opacity:1" />
    <path
       id="path4346"
       d="M 323.39368,45.448379 365,72.362205"
       style="fill:none;fill-rule:evenodd;stroke:#000000;stroke-width:1px;stroke-linecap:butt;stroke-linejoin:miter;stroke-opacity:1" />
    <path
       id="path4348"
       d="M 440.27274,119.7043 385,82.362205"
       style="display:inline;fill:none;fill-rule:evenodd;stroke:#000000;stroke-width:1px;stroke-linecap:butt;stroke-linejoin:miter;stroke-opacity:1" />
    <g
       style="font-style:normal;font-weight:normal;font-size:12.5px;line-height:125%;font-family:Sans;letter-spacing:0px;word-spacing:0px;fill:#000000;fill-opacity:1;stroke:none;stroke-width:1px;stroke-linecap:butt;stroke-linejoin:miter;stroke-opacity:1"
       id="text4350">
      <path
         d="m 92.288818,8.58535 0,1.940918 2.313233,0 0,0.872803 -2.313233,0 0,3.710937 q 0,0.836182 0.22583,1.074219 0.231934,0.238037 0.933838,0.238037 l 1.153565,0 0,0.939942 -1.153565,0 q -1.300049,0 -1.794433,-0.482178 -0.494385,-0.488281 -0.494385,-1.77002 l 0,-3.710937 -0.823975,0 0,-0.872803 0.823975,0 0,-1.940918 1.12915,0 z"
         style=""
         id="path5367" />
      <path
         d="m 96.231689,11.685936 7.824711,0 0,1.025391 -7.824711,0 0,-1.025391 z m 0,2.490234 7.824711,0 0,1.037598 -7.824711,0 0,-1.037598 z"
         style=""
         id="path5369" />
      <path
         d="m 109.35425,9.0614243 q -0.95215,0 -1.43433,0.9399417 -0.47607,0.933838 -0.47607,2.81372 0,1.87378 0.47607,2.813721 0.48218,0.933838 1.43433,0.933838 0.95825,0 1.43432,-0.933838 0.48218,-0.939941 0.48218,-2.813721 0,-1.879882 -0.48218,-2.81372 -0.47607,-0.9399417 -1.43432,-0.9399417 z m 0,-0.9765625 q 1.53198,0 2.33764,1.2145996 0.81177,1.2084956 0.81177,3.5156246 0,2.301026 -0.81177,3.515625 -0.80566,1.208496 -2.33764,1.208496 -1.53198,0 -2.34375,-1.208496 -0.80567,-1.214599 -0.80567,-3.515625 0,-2.307129 0.80567,-3.5156246 0.81177,-1.2145996 2.34375,-1.2145996 z"
         style=""
         id="path5371" />
    </g>
    <g
       style="font-style:normal;font-weight:normal;font-size:12.5px;line-height:125%;font-family:Sans;letter-spacing:0px;word-spacing:0px;fill:#000000;fill-opacity:1;stroke:none;stroke-width:1px;stroke-linecap:butt;stroke-linejoin:miter;stroke-opacity:1"
       id="text4354">
      <path
         d="m 27.288818,143.58534 0,1.94092 2.313233,0 0,0.8728 -2.313233,0 0,3.71094 q 0,0.83618 0.22583,1.07422 0.231934,0.23804 0.933838,0.23804 l 1.153565,0 0,0.93994 -1.153565,0 q -1.300049,0 -1.794433,-0.48218 -0.494385,-0.48828 -0.494385,-1.77002 l 0,-3.71094 -0.823975,0 0,-0.8728 0.823975,0 0,-1.94092 1.12915,0 z"
         style=""
         id="path5360" />
      <path
         d="m 31.231689,146.68593 7.824707,0 0,1.02539 -7.824707,0 0,-1.02539 z m 0,2.49023 7.824707,0 0,1.0376 -7.824707,0 0,-1.0376 z"
         style=""
         id="path5362" />
      <path
         d="m 44.354248,144.06142 q -0.952148,0 -1.434326,0.93994 -0.476074,0.93384 -0.476074,2.81372 0,1.87378 0.476074,2.81372 0.482178,0.93384 1.434326,0.93384 0.958252,0 1.434326,-0.93384 0.482178,-0.93994 0.482178,-2.81372 0,-1.87988 -0.482178,-2.81372 -0.476074,-0.93994 -1.434326,-0.93994 z m 0,-0.97657 q 1.531982,0 2.337647,1.2146 0.811767,1.2085 0.811767,3.51563 0,2.30102 -0.811767,3.51562 -0.805665,1.2085 -2.337647,1.2085 -1.531982,0 -2.34375,-1.2085 -0.805664,-1.2146 -0.805664,-3.51562 0,-2.30713 0.805664,-3.51563 0.811768,-1.2146 2.34375,-1.2146 z"
         style=""
         id="path5364" />
    </g>
    <g
       style="font-style:normal;font-weight:normal;font-size:12.5px;line-height:125%;font-family:Sans;letter-spacing:0px;word-spacing:0px;fill:#000000;fill-opacity:1;stroke:none;stroke-width:1px;stroke-linecap:butt;stroke-linejoin:miter;stroke-opacity:1"
       id="text4358">
      <path
         d="m 142.28882,143.58534 0,1.94092 2.31323,0 0,0.8728 -2.31323,0 0,3.71094 q 0,0.83618 0.22583,1.07422 0.23193,0.23804 0.93384,0.23804 l 1.15356,0 0,0.93994 -1.15356,0 q -1.30005,0 -1.79444,-0.48218 -0.49438,-0.48828 -0.49438,-1.77002 l 0,-3.71094 -0.82398,0 0,-0.8728 0.82398,0 0,-1.94092 1.12915,0 z"
         style=""
         id="path5353" />
      <path
         d="m 146.23169,146.68593 7.82471,0 0,1.02539 -7.82471,0 0,-1.02539 z m 0,2.49023 7.82471,0 0,1.0376 -7.82471,0 0,-1.0376 z"
         style=""
         id="path5355" />
      <path
         d="m 156.93115,151.3246 2.01416,0 0,-6.9519 -2.19116,0.43945 0,-1.12305 2.17896,-0.43945 1.23291,0 0,8.07495 2.01416,0 0,1.0376 -5.24903,0 0,-1.0376 z"
         style=""
         id="path5357" />
    </g>
    <g
       style="font-style:normal;font-weight:normal;font-size:12.5px;line-height:125%;font-family:Sans;letter-spacing:0px;word-spacing:0px;fill:#000000;fill-opacity:1;stroke:none;stroke-width:1px;stroke-linecap:butt;stroke-linejoin:miter;stroke-opacity:1"
       id="text4362">
      <path
         d="m 202.28882,8.58535 0,1.940918 2.31323,0 0,0.872803 -2.31323,0 0,3.710937 q 0,0.836182 0.22583,1.074219 0.23193,0.238037 0.93384,0.238037 l 1.15356,0 0,0.939942 -1.15356,0 q -1.30005,0 -1.79444,-0.482178 -0.49438,-0.488281 -0.49438,-1.77002 l 0,-3.710937 -0.82398,0 0,-0.872803 0.82398,0 0,-1.940918 1.12915,0 z"
         style=""
         id="path5346" />
      <path
         d="m 206.23169,11.685936 7.82471,0 0,1.025391 -7.82471,0 0,-1.025391 z m 0,2.490234 7.82471,0 0,1.037598 -7.82471,0 0,-1.037598 z"
         style=""
         id="path5348" />
      <path
         d="m 216.93115,16.324608 2.01416,0 0,-6.9519044 -2.19116,0.4394531 0,-1.1230469 2.17896,-0.4394531 1.23291,0 0,8.0749513 2.01416,0 0,1.037598 -5.24903,0 0,-1.037598 z"
         style=""
         id="path5350" />
    </g>
    <g
       style="font-style:normal;font-weight:normal;font-size:12.5px;line-height:125%;font-family:Sans;letter-spacing:0px;word-spacing:0px;fill:#000000;fill-opacity:1;stroke:none;stroke-width:1px;stroke-linecap:butt;stroke-linejoin:miter;stroke-opacity:1"
       id="text4366">
      <path
         d="m 247.28882,143.58534 0,1.94092 2.31323,0 0,0.8728 -2.31323,0 0,3.71094 q 0,0.83618 0.22583,1.07422 0.23193,0.23804 0.93384,0.23804 l 1.15356,0 0,0.93994 -1.15356,0 q -1.30005,0 -1.79444,-0.48218 -0.49438,-0.48828 -0.49438,-1.77002 l 0,-3.71094 -0.82398,0 0,-0.8728 0.82398,0 0,-1.94092 1.12915,0 z"
         style=""
         id="path5339" />
      <path
         d="m 251.23169,146.68593 7.82471,0 0,1.02539 -7.82471,0 0,-1.02539 z m 0,2.49023 7.82471,0 0,1.0376 -7.82471,0 0,-1.0376 z"
         style=""
         id="path5341" />
      <path
         d="m 262.77954,151.3246 4.30298,0 0,1.0376 -5.78613,0 0,-1.0376 q 0.7019,-0.72632 1.9104,-1.94702 1.2146,-1.22681 1.52588,-1.58081 0.59204,-0.66529 0.82397,-1.12305 0.23804,-0.46387 0.23804,-0.90942 0,-0.72632 -0.5127,-1.18408 -0.50659,-0.45777 -1.32446,-0.45777 -0.57983,0 -1.22681,0.20142 -0.64087,0.20141 -1.37329,0.61035 l 0,-1.24512 q 0.74463,-0.29907 1.3916,-0.45166 0.64698,-0.15259 1.18409,-0.15259 1.41601,0 2.2583,0.70801 0.84228,0.70801 0.84228,1.89209 0,0.56153 -0.21362,1.06812 -0.20752,0.50049 -0.76294,1.18408 -0.15259,0.177 -0.97046,1.02539 -0.81787,0.84228 -2.30713,2.36206 z"
         style=""
         id="path5343" />
    </g>
    <g
       style="font-style:normal;font-weight:normal;font-size:12.5px;line-height:125%;font-family:Sans;letter-spacing:0px;word-spacing:0px;fill:#000000;fill-opacity:1;stroke:none;stroke-width:1px;stroke-linecap:butt;stroke-linejoin:miter;stroke-opacity:1"
       id="text4370">
      <path
         d="m 312.28882,8.58535 0,1.940918 2.31323,0 0,0.872803 -2.31323,0 0,3.710937 q 0,0.836182 0.22583,1.074219 0.23193,0.238037 0.93384,0.238037 l 1.15356,0 0,0.939942 -1.15356,0 q -1.30005,0 -1.79444,-0.482178 -0.49438,-0.488281 -0.49438,-1.77002 l 0,-3.710937 -0.82398,0 0,-0.872803 0.82398,0 0,-1.940918 1.12915,0 z"
         style=""
         id="path5332" />
      <path
         d="m 316.23169,11.685936 7.82471,0 0,1.025391 -7.82471,0 0,-1.025391 z m 0,2.490234 7.82471,0 0,1.037598 -7.82471,0 0,-1.037598 z"
         style=""
         id="path5334" />
      <path
         d="m 327.77954,16.324608 4.30298,0 0,1.037598 -5.78613,0 0,-1.037598 q 0.7019,-0.726319 1.9104,-1.947022 1.2146,-1.226806 1.52588,-1.58081 0.59204,-0.665283 0.82397,-1.123047 0.23804,-0.463867 0.23804,-0.909424 0,-0.726318 -0.5127,-1.1840819 -0.50659,-0.4577637 -1.32446,-0.4577637 -0.57983,0 -1.22681,0.201416 -0.64087,0.201416 -1.37329,0.6103516 l 0,-1.2451172 q 0.74463,-0.2990723 1.3916,-0.4516602 0.64698,-0.1525878 1.18409,-0.1525878 1.41601,0 2.2583,0.7080078 0.84228,0.7080078 0.84228,1.8920894 0,0.561524 -0.21362,1.068116 -0.20752,0.500488 -0.76294,1.184082 -0.15259,0.177002 -0.97046,1.02539 -0.81787,0.842285 -2.30713,2.362061 z"
         style=""
         id="path5336" />
    </g>
    <g
       style="font-style:normal;font-weight:normal;font-size:12.5px;line-height:125%;font-family:Sans;letter-spacing:0px;word-spacing:0px;fill:#000000;fill-opacity:1;stroke:none;stroke-width:1px;stroke-linecap:butt;stroke-linejoin:miter;stroke-opacity:1"
       id="text4374">
      <path
         d="m 437.28882,153.58534 0,1.94092 2.31323,0 0,0.8728 -2.31323,0 0,3.71094 q 0,0.83618 0.22583,1.07422 0.23193,0.23804 0.93384,0.23804 l 1.15356,0 0,0.93994 -1.15356,0 q -1.30005,0 -1.79444,-0.48218 -0.49438,-0.48828 -0.49438,-1.77002 l 0,-3.71094 -0.82398,0 0,-0.8728 0.82398,0 0,-1.94092 1.12915,0 z"
         style=""
         id="path5325" />
      <path
         d="m 441.23169,156.68593 7.82471,0 0,1.02539 -7.82471,0 0,-1.02539 z m 0,2.49023 7.82471,0 0,1.0376 -7.82471,0 0,-1.0376 z"
         style=""
         id="path5327" />
      <path
         d="m 456.07544,160.23207 q -0.18921,-0.21973 -0.48828,-0.73242 -0.40894,0.73242 -0.76904,1.05591 -0.45166,0.39062 -1.15357,0.39062 -0.82397,0 -1.36719,-0.61645 -0.57373,-0.64698 -0.57373,-1.71509 0,-1.02539 0.57373,-1.72119 0.5127,-0.61646 1.3794,-0.61646 0.44555,0 0.77514,0.18311 0.38453,0.20141 0.64698,0.54931 0.24414,0.31128 0.48828,0.73243 0.40893,-0.73243 0.76904,-1.05591 0.45166,-0.39063 1.15357,-0.39063 0.82397,0 1.36718,0.61646 0.57373,0.64697 0.57373,1.71509 0,1.02539 -0.57373,1.72119 -0.51269,0.61645 -1.37939,0.61645 -0.44556,0 -0.77515,-0.1831 -0.32959,-0.1648 -0.64697,-0.54932 z m -2.47803,-0.0854 q 1.00708,0 1.61133,-1.46484 -0.77515,-1.59912 -1.61133,-1.59912 -0.61035,0 -0.92163,0.43945 -0.33569,0.46997 -0.33569,1.09253 0,0.68359 0.33569,1.10474 0.3418,0.42724 0.92163,0.42724 z m 3.97949,-3.05176 q -0.90942,0 -1.61132,1.46485 0.76904,1.59912 1.61132,1.59912 0.61036,0 0.92164,-0.43945 0.33569,-0.46998 0.33569,-1.09253 0,-0.6836 -0.33569,-1.10474 -0.3418,-0.42725 -0.92164,-0.42725 z"
         style=""
         id="path5329" />
    </g>
    <g
       style="font-style:normal;font-weight:normal;font-size:12.5px;line-height:125%;font-family:Sans;letter-spacing:0px;word-spacing:0px;fill:#000000;fill-opacity:1;stroke:none;stroke-width:1px;stroke-linecap:butt;stroke-linejoin:miter;stroke-opacity:1"
       id="text4378">
      <path
         d="m 492.28882,13.58535 0,1.940918 2.31323,0 0,0.872803 -2.31323,0 0,3.710937 q 0,0.836182 0.22583,1.074219 0.23193,0.238037 0.93384,0.238037 l 1.15356,0 0,0.939942 -1.15356,0 q -1.30005,0 -1.79444,-0.482178 -0.49438,-0.488281 -0.49438,-1.77002 l 0,-3.710937 -0.82398,0 0,-0.872803 0.82398,0 0,-1.940918 1.12915,0 z"
         style=""
         id="path5318" />
      <path
         d="m 496.23169,16.685936 7.82471,0 0,1.025391 -7.82471,0 0,-1.025391 z m 0,2.490234 7.82471,0 0,1.037598 -7.82471,0 0,-1.037598 z"
         style=""
         id="path5320" />
      <path
         d="m 511.07544,20.232079 q -0.18921,-0.219727 -0.48828,-0.732422 -0.40894,0.732422 -0.76904,1.055908 -0.45166,0.390625 -1.15357,0.390625 -0.82397,0 -1.36719,-0.616455 -0.57373,-0.646973 -0.57373,-1.715088 0,-1.025391 0.57373,-1.721191 0.5127,-0.616456 1.3794,-0.616456 0.44555,0 0.77514,0.183106 0.38453,0.201416 0.64698,0.549316 0.24414,0.31128 0.48828,0.732422 0.40893,-0.732422 0.76904,-1.055908 0.45166,-0.390625 1.15357,-0.390625 0.82397,0 1.36718,0.616455 0.57373,0.646973 0.57373,1.715088 0,1.025391 -0.57373,1.721191 -0.51269,0.616455 -1.37939,0.616455 -0.44556,0 -0.77515,-0.183105 -0.32959,-0.164795 -0.64697,-0.549316 z m -2.47803,-0.08545 q 1.00708,0 1.61133,-1.464843 -0.77515,-1.599122 -1.61133,-1.599122 -0.61035,0 -0.92163,0.439454 -0.33569,0.46997 -0.33569,1.092529 0,0.683594 0.33569,1.104736 0.3418,0.427246 0.92163,0.427246 z m 3.97949,-3.051757 q -0.90942,0 -1.61132,1.464843 0.76904,1.599121 1.61132,1.599121 0.61036,0 0.92164,-0.439453 0.33569,-0.46997 0.33569,-1.092529 0,-0.683594 -0.33569,-1.104736 -0.3418,-0.427246 -0.92164,-0.427246 z"
         style=""
         id="path5322" />
    </g>
    <g
       id="g4736"
       transform="matrix(0.21447316,0,0,0.22374488,-45.654183,2.1257071)">
      <g
         word-spacing="normal"
         letter-spacing="normal"
         font-size-adjust="none"
         font-stretch="normal"
         font-weight="normal"
         font-variant="normal"
         font-style="normal"
         stroke-miterlimit="10.433"
         xml:space="preserve"
         transform="matrix(1.0629921,0,0,-1.0629921,-186.02362,789.27165)"
         id="content"
         style="font-style:normal;font-variant:normal;font-weight:normal;font-stretch:normal;letter-spacing:normal;word-spacing:normal;text-anchor:start;fill:none;fill-opacity:1;fill-rule:evenodd;stroke:#000000;stroke-linecap:butt;stroke-linejoin:miter;stroke-miterlimit:10.43299961;stroke-dasharray:none;stroke-dashoffset:0;stroke-opacity:1"><path
           id="path4739"
           d="m 489.14,431.01 0.06,0.03 0.06,0.03 0.05,0.02 0.05,0.03 0.05,0.03 0.05,0.03 0.05,0.02 0.04,0.03 0.04,0.03 0.05,0.03 0.04,0.03 0.03,0.02 0.04,0.03 0.04,0.03 0.03,0.03 0.03,0.04 0.03,0.03 0.03,0.03 0.02,0.03 0.03,0.04 0.02,0.03 0.02,0.04 0.02,0.04 0.01,0.04 0.02,0.04 0.01,0.04 0.01,0.04 0.01,0.04 0.01,0.05 0,0.05 0.01,0.04 0,0.06 c 0,0.54 -0.46,1 -1,1 -0.14,0 -0.25,0 -0.89,-0.35 L 460.6,419.75 c -0.55,-0.25 -0.94,-0.5 -0.94,-1.1 0,-0.59 0.39,-0.84 0.94,-1.09 l 27.61,-13 c 0.64,-0.36 0.75,-0.36 0.89,-0.36 0.54,0 1,0.45 1,1 0,0.55 -0.35,0.8 -0.96,1.09 l -26.15,12.36 z"
           inkscape:connector-curvature="0"
           style="fill:#000000;stroke-width:0" /><path
           id="path4741"
           d="m 531.51,424.73 0,0.12 0,0.13 -0.01,0.12 0,0.11 -0.01,0.12 -0.01,0.11 -0.01,0.11 -0.02,0.1 -0.03,0.21 -0.03,0.19 -0.05,0.18 -0.04,0.18 -0.06,0.16 -0.06,0.16 -0.06,0.15 -0.07,0.13 -0.07,0.13 -0.07,0.12 -0.08,0.12 -0.08,0.1 -0.08,0.1 -0.09,0.09 -0.08,0.08 -0.09,0.07 -0.09,0.07 -0.09,0.06 -0.1,0.05 -0.09,0.05 -0.09,0.04 -0.09,0.03 -0.1,0.03 -0.09,0.03 -0.09,0.01 -0.08,0.02 -0.09,0 -0.09,0 c -1.25,0 -2.43,-1.29 -2.43,-2.39 0,-0.64 0.25,-0.93 0.79,-1.48 1.05,-1 1.69,-2.3 1.69,-4.09 0,-2.1 -3.03,-13.5 -8.86,-13.5 -2.54,0 -3.69,1.75 -3.69,4.32 0,2.8 1.35,6.44 2.9,10.57 0.34,0.86 0.59,1.54 0.59,2.5 0,2.23 -1.59,4.07 -4.09,4.07 -4.68,0 -6.58,-7.21 -6.58,-7.67 0,-0.5 0.5,-0.5 0.61,-0.5 0.5,0 0.54,0.11 0.79,0.91 1.44,5.03 3.58,6.17 5.03,6.17 0.4,0 1.25,0 1.25,-1.59 0,-1.25 -0.5,-2.6 -0.85,-3.49 -2.19,-5.78 -2.83,-8.08 -2.83,-10.22 0,-5.37 4.37,-6.17 6.67,-6.17 8.37,0 11.2,16.49 11.2,19.08 z"
           inkscape:connector-curvature="0"
           style="fill:#000000;stroke-width:0" /><path
           id="path4743"
           d="m 552.1,435.31 0,0.71 -0.02,0.68 -0.03,0.66 -0.04,0.64 -0.06,0.62 -0.07,0.59 -0.09,0.58 -0.11,0.56 -0.13,0.55 -0.15,0.52 -0.17,0.52 -0.19,0.5 -0.21,0.49 -0.24,0.48 -0.26,0.47 -0.14,0.23 -0.15,0.23 c -1.07,1.61 -3.23,3 -6.03,3 -8.08,0 -8.08,-9.52 -8.08,-12.03 0,-2.5 0,-11.81 8.08,-11.81 l 0,0.98 c -1.59,0 -3.72,0.94 -4.42,3.8 -0.49,2.04 -0.49,4.9 -0.49,7.48 0,2.55 0,5.2 0.52,7.11 0.73,2.75 2.97,3.49 4.39,3.49 1.89,0 3.71,-1.15 4.33,-3.18 0.56,-1.87 0.59,-4.39 0.59,-7.42 0,-2.58 0,-5.15 -0.45,-7.34 -0.7,-3.17 -3.06,-3.94 -4.47,-3.94 l 0,0 0,-0.98 c 8.09,0 8.09,9.31 8.09,11.81 z"
           inkscape:connector-curvature="0"
           style="fill:#000000;stroke-width:0" /><path
           id="path4745"
           d="m 543.62,415.02 0,0.05 -0.01,0.05 0,0.06 -0.01,0.05 -0.01,0.06 -0.02,0.06 -0.02,0.05 -0.01,0.06 -0.03,0.05 -0.02,0.06 -0.03,0.06 -0.03,0.05 -0.03,0.05 -0.04,0.06 -0.04,0.05 -0.04,0.05 -0.04,0.05 -0.05,0.04 -0.05,0.05 -0.05,0.04 -0.06,0.04 -0.06,0.04 -0.06,0.04 -0.06,0.03 -0.07,0.03 -0.07,0.02 -0.08,0.02 -0.08,0.02 -0.08,0.02 -0.08,0.01 -0.09,0.01 -0.09,0 c -0.94,0 -1.95,-0.91 -1.95,-1.92 0,-0.6 0.45,-1.33 1.4,-1.33 1,0 1.96,0.98 1.96,1.92 z"
           inkscape:connector-curvature="0"
           style="fill:#000000;stroke-width:0" /><path
           id="path4747"
           d="m 536.51,397.32 -0.06,-0.17 -0.05,-0.17 -0.03,-0.09 -0.02,-0.08 -0.03,-0.09 -0.02,-0.09 -0.02,-0.08 -0.02,-0.1 -0.02,-0.09 -0.02,-0.1 -0.01,-0.1 0,-0.05 -0.01,-0.05 0,-0.05 0,-0.05 0,-0.06 0,-0.05 c 0,-1.64 1.39,-2.96 3.29,-2.96 3.49,0 5.03,4.8 5.03,5.33 0,0.46 -0.45,0.46 -0.56,0.46 -0.48,0 -0.53,-0.21 -0.67,-0.6 -0.8,-2.78 -2.33,-4.22 -3.69,-4.22 -0.7,0 -0.87,0.46 -0.87,1.22 0,0.8 0.25,1.47 0.56,2.24 0.34,0.93 0.73,1.87 1.11,2.78 0.31,0.84 1.58,4.01 1.72,4.44 0.09,0.34 0.2,0.76 0.2,1.1 0,1.65 -1.39,2.96 -3.31,2.96 -3.46,0 -5.05,-4.74 -5.05,-5.33 0,-0.45 0.49,-0.45 0.59,-0.45 0.49,0 0.52,0.17 0.63,0.56 0.91,3 2.44,4.25 3.72,4.25 0.56,0 0.87,-0.28 0.87,-1.22 0,-0.8 -0.2,-1.33 -1.07,-3.48 z"
           inkscape:connector-curvature="0"
           style="fill:#000000;stroke-width:0" /><path
           id="path4749"
           d="m 566.55,406.25 0,0.3 -0.01,0.3 -0.02,0.29 -0.03,0.28 -0.03,0.27 -0.04,0.26 -0.04,0.26 -0.05,0.24 -0.06,0.24 -0.07,0.23 -0.07,0.22 -0.07,0.21 -0.09,0.2 -0.08,0.19 -0.1,0.19 -0.1,0.17 -0.11,0.16 -0.11,0.16 -0.12,0.14 -0.12,0.13 -0.13,0.13 -0.13,0.11 -0.14,0.1 -0.14,0.1 -0.15,0.08 -0.16,0.07 -0.16,0.06 -0.16,0.05 -0.17,0.04 -0.17,0.03 -0.18,0.01 -0.18,0.01 c -1.64,0 -2.64,-1.25 -2.64,-2.64 0,-1.34 1,-2.64 2.64,-2.64 0.6,0 1.25,0.2 1.75,0.64 0.14,0.11 0.21,0.16 0.25,0.16 0.05,0 0.1,-0.05 0.1,-0.75 0,-3.69 -1.74,-6.68 -3.39,-8.32 -0.55,-0.54 -0.55,-0.65 -0.55,-0.79 0,-0.36 0.25,-0.55 0.5,-0.55 0.55,0 4.53,3.83 4.53,9.66 z"
           inkscape:connector-curvature="0"
           style="fill:#000000;stroke-width:0" /><path
           id="path4751"
           d="m 592.81,440.23 0,0 0,0.01 0,0 0,0.01 0,0.02 0,0.01 0,0.02 0,0.02 -0.01,0.02 0,0.02 -0.01,0.02 0,0.02 -0.01,0.02 -0.01,0.03 -0.01,0.02 -0.01,0.03 -0.02,0.02 -0.01,0.03 -0.02,0.02 -0.02,0.02 -0.02,0.03 -0.02,0.01 -0.01,0.01 -0.01,0.01 -0.02,0.01 -0.01,0.01 -0.02,0.01 -0.01,0.01 -0.02,0.01 -0.01,0.01 -0.02,0.01 -0.02,0 -0.02,0.01 -0.02,0.01 -0.02,0 -0.02,0.01 -0.03,0.01 -0.02,0 -0.02,0 -0.03,0.01 -0.03,0 -0.02,0 -0.03,0.01 -0.03,0 -0.03,0 c -1.15,0 -4.78,-0.41 -6.08,-0.5 -0.4,-0.05 -0.95,-0.1 -0.95,-1 0,-0.6 0.45,-0.6 1.2,-0.6 2.39,0 2.49,-0.34 2.49,-0.84 l -0.16,-1 -7.22,-28.7 c -0.2,-0.69 -0.2,-0.8 -0.2,-1.1 0,-1.14 1,-1.39 1.45,-1.39 0.8,0 1.6,0.6 1.85,1.3 l 0.93,3.78 1.11,4.48 c 0.3,1.1 0.6,2.19 0.85,3.35 0.09,0.3 0.5,1.94 0.54,2.23 0.14,0.46 1.69,3.25 3.4,4.6 1.09,0.79 2.64,1.73 4.78,1.73 2.14,0 2.68,-1.69 2.68,-3.48 0,-2.69 -1.89,-8.13 -3.09,-11.16 -0.39,-1.16 -0.64,-1.75 -0.64,-2.75 0,-2.33 1.73,-4.08 4.08,-4.08 4.69,0 6.53,7.27 6.53,7.67 0,0.5 -0.45,0.5 -0.6,0.5 -0.5,0 -0.5,-0.15 -0.74,-0.9 -0.76,-2.64 -2.35,-6.17 -5.08,-6.17 -0.86,0 -1.21,0.5 -1.21,1.64 0,1.25 0.46,2.45 0.91,3.54 0.8,2.14 3.03,8.07 3.03,10.96 0,3.23 -2,5.32 -5.73,5.32 -3.14,0 -5.53,-1.53 -7.38,-3.82 z"
           inkscape:connector-curvature="0"
           style="fill:#000000;stroke-width:0" /><path
           id="path4753"
           d="m 625.18,435.31 0,0.71 -0.02,0.68 -0.03,0.66 -0.04,0.64 -0.06,0.62 -0.07,0.59 -0.1,0.58 -0.1,0.56 -0.13,0.55 -0.15,0.52 -0.17,0.52 -0.19,0.5 -0.21,0.49 -0.24,0.48 -0.26,0.47 -0.14,0.23 -0.15,0.23 c -1.08,1.61 -3.23,3 -6.03,3 -8.08,0 -8.08,-9.52 -8.08,-12.03 0,-2.5 0,-11.81 8.08,-11.81 l 0,0.98 c -1.59,0 -3.72,0.94 -4.42,3.8 -0.49,2.04 -0.49,4.9 -0.49,7.48 0,2.55 0,5.2 0.52,7.11 0.73,2.75 2.97,3.49 4.39,3.49 1.89,0 3.7,-1.15 4.33,-3.18 0.56,-1.87 0.59,-4.39 0.59,-7.42 0,-2.58 0,-5.15 -0.45,-7.34 -0.71,-3.17 -3.06,-3.94 -4.47,-3.94 l 0,0 0,-0.98 c 8.09,0 8.09,9.31 8.09,11.81 z"
           inkscape:connector-curvature="0"
           style="fill:#000000;stroke-width:0" /><path
           id="path4755"
           d="m 622.5,415.02 -0.01,0.06 0,0.05 -0.01,0.06 -0.01,0.06 -0.01,0.06 -0.01,0.05 -0.02,0.06 -0.02,0.06 -0.02,0.05 -0.03,0.06 -0.03,0.06 -0.03,0.05 -0.03,0.05 -0.04,0.06 -0.04,0.05 -0.04,0.05 -0.04,0.04 -0.05,0.05 -0.05,0.04 -0.05,0.04 -0.06,0.04 -0.06,0.04 -0.06,0.03 -0.06,0.03 -0.07,0.03 -0.07,0.03 -0.07,0.02 -0.08,0.02 -0.07,0.01 -0.08,0.01 -0.09,0.01 -0.09,0 c -1.01,0 -1.95,-0.99 -1.95,-1.92 0,-0.57 0.42,-1.33 1.39,-1.33 0.94,0 1.96,0.9 1.96,1.92 z"
           inkscape:connector-curvature="0"
           style="fill:#000000;stroke-width:0" /><path
           id="path4757"
           d="m 615.1,391.54 -0.05,-0.23 -0.07,-0.22 -0.07,-0.22 -0.08,-0.22 -0.09,-0.21 -0.09,-0.21 -0.1,-0.2 -0.11,-0.2 -0.11,-0.2 -0.12,-0.19 -0.12,-0.18 -0.12,-0.18 -0.14,-0.18 -0.13,-0.16 -0.15,-0.16 -0.14,-0.16 -0.15,-0.15 -0.16,-0.14 -0.15,-0.13 -0.17,-0.12 -0.16,-0.12 -0.17,-0.11 -0.17,-0.09 -0.18,-0.09 -0.18,-0.08 -0.18,-0.08 -0.18,-0.06 -0.18,-0.05 -0.19,-0.04 -0.19,-0.02 -0.19,-0.02 -0.19,-0.01 c -0.45,0 -0.87,0.07 -1.27,0.21 0.91,0.42 1.19,1.25 1.19,1.78 0,0.83 -0.65,1.28 -1.36,1.28 -1.08,0 -1.98,-0.94 -1.98,-2.05 0,-1.33 1.36,-2.2 3.45,-2.2 2.1,0 6.16,1.25 7.25,5.5 l 3.13,12.48 c 0.11,0.38 0.17,0.69 0.17,1.22 0,1.91 -1.63,3.27 -3.72,3.27 -3.88,0 -6.09,-4.85 -6.09,-5.33 0,-0.45 0.48,-0.45 0.59,-0.45 0.41,0 0.45,0.11 0.69,0.62 0.87,2.03 2.68,4.19 4.7,4.19 0.88,0 1.19,-0.59 1.19,-1.7 0,-0.39 -0.06,-0.88 -0.11,-1.05 z"
           inkscape:connector-curvature="0"
           style="fill:#000000;stroke-width:0" /><path
           id="path4759"
           d="m 677.07,417.56 0.1,0.05 0.09,0.04 0.05,0.03 0.05,0.02 0.04,0.03 0.05,0.02 0.04,0.03 0.04,0.02 0.04,0.03 0.04,0.03 0.04,0.03 0.03,0.03 0.04,0.03 0.03,0.03 0.03,0.03 0.03,0.03 0.03,0.04 0.02,0.03 0.03,0.04 0.02,0.04 0.02,0.04 0.02,0.04 0.01,0.04 0.02,0.04 0.01,0.05 0.01,0.05 0.01,0.04 0.01,0.05 0,0.06 0,0.05 c 0,0.6 -0.41,0.85 -0.95,1.1 l -27.6,13.01 c -0.65,0.35 -0.75,0.35 -0.9,0.35 -0.55,0 -0.99,-0.46 -0.99,-1 0,-0.46 0.25,-0.75 0.94,-1.1 l 26.16,-12.36 -26.16,-12.36 c -0.69,-0.34 -0.94,-0.64 -0.94,-1.09 0,-0.55 0.44,-1 0.99,-1 0.15,0 0.25,0 0.9,0.36 z"
           inkscape:connector-curvature="0"
           style="fill:#000000;stroke-width:0" /></g>    </g>
    <g
       id="g5168"
       transform="matrix(0.21017686,0,0,0.22620362,415.77033,8.2653601)">
      <g
         word-spacing="normal"
         letter-spacing="normal"
         font-size-adjust="none"
         font-stretch="normal"
         font-weight="normal"
         font-variant="normal"
         font-style="normal"
         stroke-miterlimit="10.433"
         xml:space="preserve"
         transform="matrix(1.0629921,0,0,-1.0629921,-186.02362,789.27165)"
         id="g5170"
         style="font-style:normal;font-variant:normal;font-weight:normal;font-stretch:normal;letter-spacing:normal;word-spacing:normal;text-anchor:start;fill:none;fill-opacity:1;fill-rule:evenodd;stroke:#000000;stroke-linecap:butt;stroke-linejoin:miter;stroke-miterlimit:10.43299961;stroke-dasharray:none;stroke-dashoffset:0;stroke-opacity:1"><path
           id="path5172"
           d="m 489.14,431.01 0.06,0.03 0.06,0.03 0.05,0.02 0.05,0.03 0.05,0.03 0.05,0.03 0.05,0.02 0.04,0.03 0.04,0.03 0.05,0.03 0.04,0.03 0.03,0.02 0.04,0.03 0.04,0.03 0.03,0.03 0.03,0.04 0.03,0.03 0.03,0.03 0.02,0.03 0.03,0.04 0.02,0.03 0.02,0.04 0.02,0.04 0.01,0.04 0.02,0.04 0.01,0.04 0.01,0.04 0.01,0.04 0.01,0.05 0,0.05 0.01,0.04 0,0.06 c 0,0.54 -0.46,1 -1,1 -0.14,0 -0.25,0 -0.89,-0.35 L 460.6,419.75 c -0.55,-0.25 -0.94,-0.5 -0.94,-1.1 0,-0.59 0.39,-0.84 0.94,-1.09 l 27.61,-13 c 0.64,-0.36 0.75,-0.36 0.89,-0.36 0.54,0 1,0.45 1,1 0,0.55 -0.35,0.8 -0.96,1.09 l -26.15,12.36 z"
           inkscape:connector-curvature="0"
           style="fill:#000000;stroke-width:0" /><path
           id="path5174"
           d="m 531.51,424.73 0,0.12 0,0.13 -0.01,0.12 0,0.11 -0.01,0.12 -0.01,0.11 -0.01,0.11 -0.02,0.1 -0.03,0.21 -0.03,0.19 -0.05,0.18 -0.04,0.18 -0.06,0.16 -0.06,0.16 -0.06,0.15 -0.07,0.13 -0.07,0.13 -0.07,0.12 -0.08,0.12 -0.08,0.1 -0.08,0.1 -0.09,0.09 -0.08,0.08 -0.09,0.07 -0.09,0.07 -0.09,0.06 -0.1,0.05 -0.09,0.05 -0.09,0.04 -0.09,0.03 -0.1,0.03 -0.09,0.03 -0.09,0.01 -0.08,0.02 -0.09,0 -0.09,0 c -1.25,0 -2.43,-1.29 -2.43,-2.39 0,-0.64 0.25,-0.93 0.79,-1.48 1.05,-1 1.69,-2.3 1.69,-4.09 0,-2.1 -3.03,-13.5 -8.86,-13.5 -2.54,0 -3.69,1.75 -3.69,4.32 0,2.8 1.35,6.44 2.9,10.57 0.34,0.86 0.59,1.54 0.59,2.5 0,2.23 -1.59,4.07 -4.09,4.07 -4.68,0 -6.58,-7.21 -6.58,-7.67 0,-0.5 0.5,-0.5 0.61,-0.5 0.5,0 0.54,0.11 0.79,0.91 1.44,5.03 3.58,6.17 5.03,6.17 0.4,0 1.25,0 1.25,-1.59 0,-1.25 -0.5,-2.6 -0.85,-3.49 -2.19,-5.78 -2.83,-8.08 -2.83,-10.22 0,-5.37 4.37,-6.17 6.67,-6.17 8.37,0 11.2,16.49 11.2,19.08 z"
           inkscape:connector-curvature="0"
           style="fill:#000000;stroke-width:0" /><path
           id="path5176"
           d="m 554.26,433.75 -0.17,0.19 -0.16,0.19 -0.15,0.18 -0.15,0.18 -0.15,0.16 -0.13,0.16 -0.14,0.15 -0.12,0.14 -0.13,0.14 -0.11,0.13 -0.12,0.12 -0.11,0.12 -0.11,0.12 -0.1,0.11 -0.11,0.1 -0.1,0.11 -0.2,0.19 -0.19,0.18 -0.2,0.18 -0.2,0.17 -0.2,0.16 -0.22,0.16 -0.11,0.09 -0.11,0.08 -0.12,0.09 -0.12,0.08 c -2.13,1.55 -4.35,2.13 -6.27,2.13 -4.33,0 -7.45,-3.69 -7.45,-7.88 l 0.97,0 c 0,3.36 2.72,5.97 5.92,5.97 3.25,0 5.47,-2.65 8.81,-6.69 l 0,0 c -1.39,-2.26 -4.42,-5.79 -8.67,-5.79 -3.59,0 -6.06,3.17 -6.06,6.51 l -0.97,0 c 0,-4.06 2.98,-7.82 7.34,-7.82 4.85,0 8.24,3.96 9.49,5.81 1.84,-2.16 2.4,-2.75 3.71,-3.69 2.13,-1.53 4.37,-2.12 6.29,-2.12 4.31,0 7.45,3.68 7.45,7.87 l -0.97,0 c 0,-3.34 -2.72,-5.97 -5.92,-5.97 -3.25,0 -5.48,2.66 -8.83,6.7 l 0,0 c 1.41,2.25 4.44,5.79 8.69,5.79 3.58,0 6.06,-3.18 6.06,-6.52 l 0.97,0 c 0,4.08 -3,7.83 -7.34,7.83 -4.85,0 -8.24,-3.97 -9.49,-5.81 z"
           inkscape:connector-curvature="0"
           style="fill:#000000;stroke-width:0" /><path
           id="path5178"
           d="m 543.62,415.02 0,0.05 -0.01,0.05 0,0.06 -0.01,0.05 -0.01,0.06 -0.02,0.06 -0.02,0.05 -0.01,0.06 -0.03,0.05 -0.02,0.06 -0.03,0.06 -0.03,0.05 -0.03,0.05 -0.04,0.06 -0.04,0.05 -0.04,0.05 -0.04,0.05 -0.05,0.04 -0.05,0.05 -0.05,0.04 -0.06,0.04 -0.06,0.04 -0.06,0.04 -0.06,0.03 -0.07,0.03 -0.07,0.02 -0.08,0.02 -0.08,0.02 -0.08,0.02 -0.08,0.01 -0.09,0.01 -0.09,0 c -0.94,0 -1.95,-0.91 -1.95,-1.92 0,-0.6 0.45,-1.33 1.4,-1.33 1,0 1.96,0.98 1.96,1.92 z"
           inkscape:connector-curvature="0"
           style="fill:#000000;stroke-width:0" /><path
           id="path5180"
           d="m 536.51,397.32 -0.06,-0.17 -0.05,-0.17 -0.03,-0.09 -0.02,-0.08 -0.03,-0.09 -0.02,-0.09 -0.02,-0.08 -0.02,-0.1 -0.02,-0.09 -0.02,-0.1 -0.01,-0.1 0,-0.05 -0.01,-0.05 0,-0.05 0,-0.05 0,-0.06 0,-0.05 c 0,-1.64 1.39,-2.96 3.29,-2.96 3.49,0 5.03,4.8 5.03,5.33 0,0.46 -0.45,0.46 -0.56,0.46 -0.48,0 -0.53,-0.21 -0.67,-0.6 -0.8,-2.78 -2.33,-4.22 -3.69,-4.22 -0.7,0 -0.87,0.46 -0.87,1.22 0,0.8 0.25,1.47 0.56,2.24 0.34,0.93 0.73,1.87 1.11,2.78 0.31,0.84 1.58,4.01 1.72,4.44 0.09,0.34 0.2,0.76 0.2,1.1 0,1.65 -1.39,2.96 -3.31,2.96 -3.46,0 -5.05,-4.74 -5.05,-5.33 0,-0.45 0.49,-0.45 0.59,-0.45 0.49,0 0.52,0.17 0.63,0.56 0.91,3 2.44,4.25 3.72,4.25 0.56,0 0.87,-0.28 0.87,-1.22 0,-0.8 -0.2,-1.33 -1.07,-3.48 z"
           inkscape:connector-curvature="0"
           style="fill:#000000;stroke-width:0" /><path
           id="path5182"
           d="m 586.35,406.25 -0.01,0.3 -0.01,0.3 -0.01,0.29 -0.03,0.28 -0.03,0.27 -0.04,0.26 -0.04,0.26 -0.06,0.24 -0.05,0.24 -0.07,0.23 -0.07,0.22 -0.08,0.21 -0.08,0.2 -0.09,0.19 -0.09,0.19 -0.1,0.17 -0.11,0.16 -0.11,0.16 -0.12,0.14 -0.12,0.13 -0.13,0.13 -0.14,0.11 -0.13,0.1 -0.15,0.1 -0.15,0.08 -0.15,0.07 -0.16,0.06 -0.16,0.05 -0.17,0.04 -0.17,0.03 -0.18,0.01 -0.18,0.01 c -1.64,0 -2.64,-1.25 -2.64,-2.64 0,-1.34 1,-2.64 2.64,-2.64 0.59,0 1.25,0.2 1.75,0.64 0.14,0.11 0.2,0.16 0.25,0.16 0.05,0 0.09,-0.05 0.09,-0.75 0,-3.69 -1.73,-6.68 -3.39,-8.32 -0.54,-0.54 -0.54,-0.65 -0.54,-0.79 0,-0.36 0.25,-0.55 0.5,-0.55 0.54,0 4.53,3.83 4.53,9.66 z"
           inkscape:connector-curvature="0"
           style="fill:#000000;stroke-width:0" /><path
           id="path5184"
           d="m 612.61,440.23 0,0 0,0.01 0,0 0,0.01 0,0.02 0,0.01 0,0.02 0,0.02 -0.01,0.02 0,0.02 -0.01,0.02 0,0.02 -0.01,0.02 -0.01,0.03 -0.01,0.02 -0.01,0.03 -0.02,0.02 -0.01,0.03 -0.02,0.02 -0.02,0.02 -0.02,0.03 -0.02,0.01 -0.01,0.01 -0.01,0.01 -0.01,0.01 -0.02,0.01 -0.01,0.01 -0.02,0.01 -0.02,0.01 -0.01,0.01 -0.02,0.01 -0.02,0 -0.02,0.01 -0.02,0.01 -0.02,0 -0.02,0.01 -0.03,0.01 -0.02,0 -0.02,0 -0.03,0.01 -0.02,0 -0.03,0 -0.03,0.01 -0.03,0 -0.03,0 c -1.15,0 -4.78,-0.41 -6.07,-0.5 -0.41,-0.05 -0.96,-0.1 -0.96,-1 0,-0.6 0.46,-0.6 1.21,-0.6 2.38,0 2.48,-0.34 2.48,-0.84 l -0.16,-1 -7.22,-28.7 c -0.2,-0.69 -0.2,-0.8 -0.2,-1.1 0,-1.14 1,-1.39 1.45,-1.39 0.8,0 1.6,0.6 1.85,1.3 l 0.93,3.78 1.12,4.48 c 0.29,1.1 0.59,2.19 0.84,3.35 0.09,0.3 0.5,1.94 0.54,2.23 0.15,0.46 1.69,3.25 3.4,4.6 1.09,0.79 2.64,1.73 4.78,1.73 2.14,0 2.69,-1.69 2.69,-3.48 0,-2.69 -1.9,-8.13 -3.1,-11.16 -0.39,-1.16 -0.64,-1.75 -0.64,-2.75 0,-2.33 1.74,-4.08 4.08,-4.08 4.69,0 6.53,7.27 6.53,7.67 0,0.5 -0.45,0.5 -0.59,0.5 -0.5,0 -0.5,-0.15 -0.75,-0.9 -0.75,-2.64 -2.35,-6.17 -5.08,-6.17 -0.86,0 -1.2,0.5 -1.2,1.64 0,1.25 0.45,2.45 0.9,3.54 0.8,2.14 3.03,8.07 3.03,10.96 0,3.23 -2,5.32 -5.73,5.32 -3.14,0 -5.53,-1.53 -7.38,-3.82 z"
           inkscape:connector-curvature="0"
           style="fill:#000000;stroke-width:0" /><path
           id="path5186"
           d="m 647.14,433.75 -0.17,0.19 -0.16,0.19 -0.16,0.18 -0.14,0.18 -0.15,0.16 -0.13,0.16 -0.14,0.15 -0.12,0.14 -0.13,0.14 -0.11,0.13 -0.12,0.12 -0.11,0.12 -0.11,0.12 -0.11,0.11 -0.1,0.1 -0.1,0.11 -0.2,0.19 -0.19,0.18 -0.2,0.18 -0.2,0.17 -0.2,0.16 -0.22,0.16 -0.11,0.09 -0.11,0.08 -0.12,0.09 -0.12,0.08 c -2.13,1.55 -4.35,2.13 -6.27,2.13 -4.33,0 -7.45,-3.69 -7.45,-7.88 l 0.97,0 c 0,3.36 2.72,5.97 5.92,5.97 3.25,0 5.47,-2.65 8.81,-6.69 l 0,0 c -1.39,-2.26 -4.42,-5.79 -8.67,-5.79 -3.6,0 -6.06,3.17 -6.06,6.51 l -0.97,0 c 0,-4.06 2.98,-7.82 7.34,-7.82 4.85,0 8.24,3.96 9.49,5.81 1.84,-2.16 2.4,-2.75 3.71,-3.69 2.13,-1.53 4.36,-2.12 6.29,-2.12 4.31,0 7.45,3.68 7.45,7.87 l -0.97,0 c 0,-3.34 -2.72,-5.97 -5.92,-5.97 -3.25,0 -5.49,2.66 -8.83,6.7 l 0,0 c 1.41,2.25 4.44,5.79 8.69,5.79 3.58,0 6.06,-3.18 6.06,-6.52 l 0.97,0 c 0,4.08 -3,7.83 -7.35,7.83 -4.84,0 -8.23,-3.97 -9.48,-5.81 z"
           inkscape:connector-curvature="0"
           style="fill:#000000;stroke-width:0" /><path
           id="path5188"
           d="m 642.3,415.02 0,0.06 -0.01,0.05 0,0.06 -0.01,0.06 -0.02,0.06 -0.01,0.05 -0.02,0.06 -0.02,0.06 -0.02,0.05 -0.03,0.06 -0.02,0.06 -0.04,0.05 -0.03,0.05 -0.04,0.06 -0.03,0.05 -0.05,0.05 -0.04,0.04 -0.05,0.05 -0.05,0.04 -0.05,0.04 -0.06,0.04 -0.06,0.04 -0.06,0.03 -0.06,0.03 -0.07,0.03 -0.07,0.03 -0.07,0.02 -0.07,0.02 -0.08,0.01 -0.08,0.01 -0.09,0.01 -0.08,0 c -1.02,0 -1.96,-0.99 -1.96,-1.92 0,-0.57 0.43,-1.33 1.39,-1.33 0.94,0 1.96,0.9 1.96,1.92 z"
           inkscape:connector-curvature="0"
           style="fill:#000000;stroke-width:0" /><path
           id="path5190"
           d="m 634.91,391.54 -0.06,-0.23 -0.07,-0.22 -0.07,-0.22 -0.08,-0.22 -0.09,-0.21 -0.09,-0.21 -0.1,-0.2 -0.11,-0.2 -0.11,-0.2 -0.11,-0.19 -0.13,-0.18 -0.12,-0.18 -0.14,-0.18 -0.13,-0.16 -0.14,-0.16 -0.15,-0.16 -0.15,-0.15 -0.16,-0.14 -0.15,-0.13 -0.17,-0.12 -0.16,-0.12 -0.17,-0.11 -0.17,-0.09 -0.18,-0.09 -0.17,-0.08 -0.18,-0.08 -0.19,-0.06 -0.18,-0.05 -0.19,-0.04 -0.19,-0.02 -0.19,-0.02 -0.19,-0.01 c -0.45,0 -0.87,0.07 -1.26,0.21 0.9,0.42 1.18,1.25 1.18,1.78 0,0.83 -0.65,1.28 -1.36,1.28 -1.07,0 -1.98,-0.94 -1.98,-2.05 0,-1.33 1.36,-2.2 3.45,-2.2 2.1,0 6.16,1.25 7.25,5.5 l 3.13,12.48 c 0.11,0.38 0.17,0.69 0.17,1.22 0,1.91 -1.62,3.27 -3.72,3.27 -3.87,0 -6.09,-4.85 -6.09,-5.33 0,-0.45 0.48,-0.45 0.59,-0.45 0.41,0 0.45,0.11 0.69,0.62 0.87,2.03 2.69,4.19 4.7,4.19 0.88,0 1.19,-0.59 1.19,-1.7 0,-0.39 -0.06,-0.88 -0.11,-1.05 z"
           inkscape:connector-curvature="0"
           style="fill:#000000;stroke-width:0" /><path
           id="path5192"
           d="m 716.78,417.56 0.11,0.05 0.09,0.04 0.05,0.03 0.05,0.02 0.04,0.03 0.04,0.02 0.05,0.03 0.04,0.02 0.04,0.03 0.04,0.03 0.03,0.03 0.04,0.03 0.03,0.03 0.04,0.03 0.03,0.03 0.03,0.03 0.02,0.04 0.03,0.03 0.02,0.04 0.03,0.04 0.02,0.04 0.02,0.04 0.01,0.04 0.02,0.04 0.01,0.05 0.01,0.05 0.01,0.04 0,0.05 0.01,0.06 0,0.05 c 0,0.6 -0.41,0.85 -0.96,1.1 l -27.59,13.01 c -0.66,0.35 -0.75,0.35 -0.91,0.35 -0.54,0 -0.98,-0.46 -0.98,-1 0,-0.46 0.25,-0.75 0.94,-1.1 l 26.16,-12.36 -26.16,-12.36 c -0.69,-0.34 -0.94,-0.64 -0.94,-1.09 0,-0.55 0.44,-1 0.98,-1 0.16,0 0.25,0 0.91,0.36 z"
           inkscape:connector-curvature="0"
           style="fill:#000000;stroke-width:0" /></g>    </g>
  </g>
</svg>
